<?xml version="1.0" encoding="UTF-8"?>
<svg version="1.1" xmlns="http://www.w3.org/2000/svg" width="198" height="198" >
<path d="M0 0 C65.34 0 130.68 0 198 0 C198 65.34 198 130.68 198 198 C132.66 198 67.32 198 0 198 C0 132.66 0 67.32 0 0 Z " fill="#FCFCFC" transform="translate(0,0)"/>
<path d="M0 0 C2.37752757 0.00186879 4.75505552 0.00329051 7.13258362 0.00428772 C13.34173679 0.00807665 19.55086597 0.01787533 25.76000977 0.0289917 C32.11539384 0.0392844 38.47078184 0.04380206 44.82617188 0.04882812 C57.26042711 0.0595014 69.69466467 0.07653345 82.12890625 0.09765625 C86.55007523 6.30372353 86.68198693 11.33086604 86.58300781 18.81616211 C86.58359192 19.97785919 86.58417603 21.13955627 86.58477783 22.3364563 C86.58199936 26.16211204 86.55091663 29.98698098 86.51953125 33.8125 C86.51206802 36.47051818 86.50617864 39.12849323 86.50238037 41.78651428 C86.48997542 48.05858365 86.45718789 54.33037229 86.41698241 60.60231835 C86.37218701 67.74619859 86.35025822 74.89009263 86.33020067 82.03407848 C86.28845271 96.72208094 86.21814934 111.40986369 86.12890625 126.09765625 C85.46890625 126.09765625 84.80890625 126.09765625 84.12890625 126.09765625 C83.46890625 127.41765625 82.80890625 128.73765625 82.12890625 130.09765625 C81.46890625 130.09765625 80.80890625 130.09765625 80.12890625 130.09765625 C80.12890625 130.75765625 80.12890625 131.41765625 80.12890625 132.09765625 C77.21206221 133.0699376 75.321585 133.23206303 72.28408813 133.2515564 C71.28590561 133.26015686 70.28772308 133.26875732 69.2592926 133.27761841 C67.61814735 133.28400833 67.61814735 133.28400833 65.94384766 133.29052734 C64.21422539 133.30279358 64.21422539 133.30279358 62.44966125 133.31530762 C58.6266024 133.34015998 54.80358061 133.35667517 50.98046875 133.37109375 C49.67658581 133.37641743 48.37270287 133.3817411 47.02930832 133.3872261 C41.55106619 133.40884615 36.07282696 133.42758327 30.59455299 133.4388485 C22.74715754 133.45509295 14.90025675 133.48829178 7.05304778 133.54524934 C1.53278491 133.58395024 -3.98734564 133.60348114 -9.50774062 133.60876906 C-12.80402442 133.61242171 -16.09965894 133.62693106 -19.39582443 133.6568718 C-23.07335081 133.68837717 -26.74962102 133.68858153 -30.42724609 133.68115234 C-31.51729446 133.69755768 -32.60734283 133.71396301 -33.73042297 133.73086548 C-38.23702463 133.69352014 -41.09193353 133.54342209 -45.04788208 131.28018188 C-47.81275925 126.45392249 -47.55254491 122.06681635 -47.48632812 116.59375 C-47.49187714 115.43062286 -47.49742615 114.26749573 -47.50314331 113.06912231 C-47.51495482 109.22404803 -47.49064678 105.38014815 -47.46484375 101.53515625 C-47.46313301 98.86383377 -47.4630948 96.19255768 -47.46496582 93.52124023 C-47.46491228 87.9225438 -47.44517787 82.32418526 -47.41308594 76.72558594 C-47.37619446 70.25836021 -47.36741071 63.79157698 -47.37438345 57.32425976 C-47.38069488 51.09584278 -47.3699224 44.8675771 -47.35041809 38.63919067 C-47.34338261 35.9917983 -47.34026422 33.34439255 -47.34111023 30.69699097 C-47.33931424 26.99826853 -47.31794782 23.30017613 -47.29101562 19.6015625 C-47.29394623 18.50530548 -47.29687683 17.40904846 -47.29989624 16.27957153 C-47.19297245 6.77075404 -47.19297245 6.77075404 -43.87109375 3.09765625 C-34.05428959 -3.84840062 -11.40911368 -0.02655238 0 0 Z " fill="#010101" transform="translate(78.87109375,31.90234375)"/>
<path d="M0 0 C1.26881012 -0.00540298 2.53762024 -0.01080597 3.84487915 -0.01637268 C7.31819021 -0.03031553 10.79100523 -0.01916563 14.26428866 -0.00266147 C17.90365897 0.01121003 21.54300109 0.00472645 25.18238831 0.00120544 C31.29468762 -0.00149538 37.40679042 0.01196655 43.51904297 0.03515625 C50.57812521 0.06175341 57.63687868 0.06351646 64.69599384 0.05176789 C71.49463304 0.04097426 78.29315372 0.04719034 85.09178352 0.06132317 C87.98121008 0.06707047 90.87054955 0.06701018 93.75997734 0.06225777 C97.79849905 0.05658269 101.83653328 0.07584149 105.875 0.09765625 C107.6682798 0.09090378 107.6682798 0.09090378 109.49778748 0.08401489 C120.33784833 0.18133123 120.33784833 0.18133123 124.50219727 3.50170898 C128.41798913 9.62286348 127.90740939 16.06036574 127.84277344 23.13818359 C127.84321152 24.39741638 127.8436496 25.65664917 127.84410095 26.95404053 C127.84495814 30.38959706 127.82737778 33.82483636 127.80637908 37.26031947 C127.78756573 40.8570879 127.78585818 44.4538644 127.78230286 48.05067444 C127.77299601 54.85391841 127.74840081 61.65701696 127.71825439 68.46019703 C127.68466786 76.20867988 127.66821371 83.95716985 127.65316808 91.70570743 C127.62184992 107.63779203 127.56911611 123.56973172 127.50219727 139.50170898 C126.51219727 139.83170898 125.52219727 140.16170898 124.50219727 140.50170898 C123.57407227 141.70827148 123.57407227 141.70827148 122.62719727 142.93920898 C119.8477999 146.29083522 117.34059374 147.31719556 113.02239609 147.75059795 C111.70840017 147.7497808 111.70840017 147.7497808 110.36785889 147.74894714 C109.35587936 147.75314163 108.34389984 147.75733612 107.30125427 147.76165771 C106.20193069 147.75603821 105.10260712 147.7504187 103.9699707 147.74462891 C102.80351517 147.74652725 101.63705963 147.7484256 100.43525696 147.75038147 C96.57729378 147.75408738 92.71951874 147.74338459 88.86157227 147.73217773 C86.17742637 147.73098535 83.49328836 147.73048212 80.80914307 147.73078918 C75.18027411 147.72985321 69.55145912 147.72118147 63.92260742 147.70751953 C57.43284294 147.6918253 50.94313765 147.68652046 44.45335555 147.68725508 C37.52509615 147.68793322 30.59685931 147.68097378 23.66860676 147.67180848 C21.68228806 147.66968651 19.69596789 147.6691248 17.70964813 147.66856956 C13.99040313 147.66639242 10.27123116 147.65761758 6.55200195 147.64697266 C5.4607753 147.64742584 4.36954865 147.64787903 3.24525452 147.64834595 C-14.24695537 147.57543771 -14.24695537 147.57543771 -18.49780273 143.50170898 C-18.82780273 143.50170898 -19.15780273 143.50170898 -19.49780273 143.50170898 C-20.39174473 136.11156817 -20.65125587 128.82561914 -20.65893555 121.38598633 C-20.66390045 120.21719437 -20.66886536 119.0484024 -20.67398071 117.8441925 C-20.68849162 114.00867103 -20.6953833 110.17319081 -20.70092773 106.33764648 C-20.70522855 104.33616399 -20.70952993 102.33468149 -20.71390224 100.33319914 C-20.72566884 94.76604906 -20.7332358 89.19890885 -20.73669744 83.6317476 C-20.74118536 76.45684102 -20.75878575 69.28212425 -20.78769803 62.10727537 C-20.80935278 56.5384134 -20.81940352 50.96960476 -20.82073855 45.40070117 C-20.82178268 42.08391694 -20.82907291 38.76735226 -20.84555817 35.45060349 C-20.86263478 31.75313658 -20.8607349 28.05613305 -20.85424805 24.35864258 C-20.86346283 23.27167587 -20.87267761 22.18470917 -20.88217163 21.06480408 C-20.84180715 13.71069426 -20.22594533 8.0344699 -15.59141541 2.0330658 C-10.56199221 -0.45652883 -5.53326237 -0.04467093 0 0 Z M0.76025391 7.8203125 C-0.34950302 7.87743912 -1.45925995 7.93456573 -2.60264587 7.99342346 C-5.89852656 8.57206169 -7.84389745 9.47325224 -10.49780273 11.50170898 C-12.41254939 14.56198043 -12.75293087 16.92593833 -12.7719574 20.50474548 C-12.78193253 21.51271683 -12.79190765 22.52068817 -12.80218506 23.5592041 C-12.80284973 24.6590564 -12.8035144 25.75890869 -12.80419922 26.89208984 C-12.81252274 28.05507095 -12.82084625 29.21805206 -12.829422 30.41627502 C-12.8535473 34.26640148 -12.86229665 38.11635867 -12.86889648 41.96655273 C-12.87559484 43.96392418 -12.88229538 45.96129563 -12.8893314 47.95866591 C-12.91079273 54.23856418 -12.92013596 60.51840844 -12.92333984 66.79833984 C-12.92697669 73.2730183 -12.95688515 79.7472232 -12.99874443 86.22175688 C-13.03344601 91.78451883 -13.04888823 97.34712377 -13.04958588 102.90999323 C-13.05037861 106.23082513 -13.06148208 109.55106479 -13.08758354 112.87180901 C-13.11438192 116.57560601 -13.10970578 120.27808977 -13.09716797 123.98193359 C-13.11200226 125.07976166 -13.12683655 126.17758972 -13.14212036 127.3086853 C-13.09840862 131.83398898 -12.94884747 134.71370923 -10.67558289 138.68522644 C-5.86318808 141.43608734 -1.50762237 141.1672833 3.94604492 141.08520508 C5.10263107 141.0875415 6.25921722 141.08987793 7.45085144 141.09228516 C11.27311358 141.09389983 15.09416879 141.05986446 18.91625977 141.02514648 C21.56995588 141.01835795 24.22359192 141.01343672 26.87728882 141.01089478 C32.43731656 141.00169951 37.99699947 140.97419332 43.55688477 140.93383789 C51.39868754 140.87697165 59.24031709 140.85467901 67.08229375 140.83855319 C73.17280674 140.82459172 79.26328334 140.80001354 85.35375977 140.77514648 C86.65586018 140.77023571 87.95796059 140.76532494 89.29951859 140.76026535 C92.97211939 140.74402929 96.64459588 140.72062523 100.31713867 140.69458008 C101.95828392 140.68819016 101.95828392 140.68819016 103.63258362 140.68167114 C104.63076614 140.67307068 105.62894867 140.66447021 106.65737915 140.65560913 C107.5256666 140.65003683 108.39395405 140.64446453 109.28855324 140.63872337 C111.67755921 140.5860421 111.67755921 140.5860421 114.50219727 139.50170898 C114.50219727 138.84170898 114.50219727 138.18170898 114.50219727 137.50170898 C115.82219727 136.84170898 117.14219727 136.18170898 118.50219727 135.50170898 C118.50219727 134.84170898 118.50219727 134.18170898 118.50219727 133.50170898 C119.16219727 133.50170898 119.82219727 133.50170898 120.50219727 133.50170898 C120.5957356 118.1069961 120.66622294 102.71230454 120.70944595 87.31737423 C120.73005073 80.16884282 120.7581311 73.02048822 120.80395508 65.87207031 C120.84388712 59.63979568 120.86964524 53.40764913 120.87855124 47.17525011 C120.88375538 43.87669574 120.89805623 40.57859211 120.92511749 37.2801342 C120.9541618 33.59327361 120.95815265 29.90717147 120.95629883 26.22021484 C120.97787048 24.58885841 120.97787048 24.58885841 120.99987793 22.92454529 C120.96524073 16.55662884 120.22119053 12.72212072 116.50219727 7.50170898 C102.8101942 7.47844955 89.11819589 7.46072494 75.42617702 7.44989681 C69.06715124 7.44469759 62.70813905 7.43765422 56.34912109 7.42626953 C50.20235627 7.4153348 44.05560445 7.40940989 37.90883064 7.40683174 C35.5739223 7.40499646 33.2390146 7.40141294 30.90411186 7.39597893 C15.82703799 7.33663914 15.82703799 7.33663914 0.76025391 7.8203125 Z " fill="#BBBBBB" transform="translate(44.497802734375,24.498291015625)"/>
<path d="M0 0 C2.37752757 0.00186879 4.75505552 0.00329051 7.13258362 0.00428772 C13.34173679 0.00807665 19.55086597 0.01787533 25.76000977 0.0289917 C32.11539384 0.0392844 38.47078184 0.04380206 44.82617188 0.04882812 C57.26042711 0.0595014 69.69466467 0.07653345 82.12890625 0.09765625 C86.55007523 6.30372353 86.68198693 11.33086604 86.58300781 18.81616211 C86.58359192 19.97785919 86.58417603 21.13955627 86.58477783 22.3364563 C86.58199936 26.16211204 86.55091663 29.98698098 86.51953125 33.8125 C86.51206802 36.47051818 86.50617864 39.12849323 86.50238037 41.78651428 C86.48997542 48.05858365 86.45718789 54.33037229 86.41698241 60.60231835 C86.37218701 67.74619859 86.35025822 74.89009263 86.33020067 82.03407848 C86.28845271 96.72208094 86.21814934 111.40986369 86.12890625 126.09765625 C85.46890625 126.09765625 84.80890625 126.09765625 84.12890625 126.09765625 C83.46890625 127.41765625 82.80890625 128.73765625 82.12890625 130.09765625 C81.46890625 130.09765625 80.80890625 130.09765625 80.12890625 130.09765625 C80.12890625 130.75765625 80.12890625 131.41765625 80.12890625 132.09765625 C77.21206221 133.0699376 75.321585 133.23206303 72.28408813 133.2515564 C71.28590561 133.26015686 70.28772308 133.26875732 69.2592926 133.27761841 C67.61814735 133.28400833 67.61814735 133.28400833 65.94384766 133.29052734 C64.21422539 133.30279358 64.21422539 133.30279358 62.44966125 133.31530762 C58.6266024 133.34015998 54.80358061 133.35667517 50.98046875 133.37109375 C49.67658581 133.37641743 48.37270287 133.3817411 47.02930832 133.3872261 C41.55106619 133.40884615 36.07282696 133.42758327 30.59455299 133.4388485 C22.74715754 133.45509295 14.90025675 133.48829178 7.05304778 133.54524934 C1.53278491 133.58395024 -3.98734564 133.60348114 -9.50774062 133.60876906 C-12.80402442 133.61242171 -16.09965894 133.62693106 -19.39582443 133.6568718 C-23.07335081 133.68837717 -26.74962102 133.68858153 -30.42724609 133.68115234 C-31.51729446 133.69755768 -32.60734283 133.71396301 -33.73042297 133.73086548 C-38.23702463 133.69352014 -41.09193353 133.54342209 -45.04788208 131.28018188 C-47.81275925 126.45392249 -47.55254491 122.06681635 -47.48632812 116.59375 C-47.49187714 115.43062286 -47.49742615 114.26749573 -47.50314331 113.06912231 C-47.51495482 109.22404803 -47.49064678 105.38014815 -47.46484375 101.53515625 C-47.46313301 98.86383377 -47.4630948 96.19255768 -47.46496582 93.52124023 C-47.46491228 87.9225438 -47.44517787 82.32418526 -47.41308594 76.72558594 C-47.37619446 70.25836021 -47.36741071 63.79157698 -47.37438345 57.32425976 C-47.38069488 51.09584278 -47.3699224 44.8675771 -47.35041809 38.63919067 C-47.34338261 35.9917983 -47.34026422 33.34439255 -47.34111023 30.69699097 C-47.33931424 26.99826853 -47.31794782 23.30017613 -47.29101562 19.6015625 C-47.29394623 18.50530548 -47.29687683 17.40904846 -47.29989624 16.27957153 C-47.19297245 6.77075404 -47.19297245 6.77075404 -43.87109375 3.09765625 C-34.05428959 -3.84840062 -11.40911368 -0.02655238 0 0 Z M66.49914551 6.09524536 C54.04061846 6.0916903 41.58250193 6.11925131 29.12410736 6.17793465 C22.73156441 6.20706829 16.33939083 6.22499673 9.94677734 6.21777344 C3.76158457 6.21119268 -2.4228828 6.23358524 -8.60792542 6.27621078 C-10.96502602 6.28735513 -13.32220008 6.2880303 -15.67930603 6.27807999 C-18.97386273 6.26594599 -22.26618599 6.2909165 -25.56054688 6.32470703 C-26.53524429 6.31248611 -27.50994171 6.3002652 -28.51417542 6.28767395 C-33.10648744 6.37269726 -35.24243986 6.62184259 -38.98576355 9.45507812 C-41.96381856 13.92817261 -41.48362358 18.97411617 -41.34692383 24.15185547 C-41.33790039 25.2548851 -41.32887695 26.35791473 -41.31958008 27.49436951 C-41.28388337 31.1310882 -41.21243503 34.76617383 -41.140625 38.40234375 C-41.10885397 40.92722949 -41.07931778 43.45214426 -41.05192566 45.9770813 C-40.98187087 51.93776605 -40.88932437 57.89783106 -40.78580636 63.85800374 C-40.66916839 70.64616165 -40.58137446 77.43459782 -40.49595416 84.22320914 C-40.31966974 98.18190156 -40.10732133 112.13985876 -39.87109375 126.09765625 C-36.83968829 127.8449966 -34.65093271 128.35078191 -31.16503906 128.36508179 C-29.75188416 128.37787674 -29.75188416 128.37787674 -28.31018066 128.39093018 C-27.28356323 128.3900238 -26.2569458 128.38911743 -25.19921875 128.38818359 C-24.11265991 128.39490082 -23.02610107 128.40161804 -21.90661621 128.40853882 C-18.31139569 128.42755243 -14.71636143 128.43144444 -11.12109375 128.43359375 C-8.62532473 128.44001825 -6.12955648 128.44674635 -3.63378906 128.45376587 C1.59831961 128.46574628 6.83038091 128.46953138 12.0625 128.46826172 C18.10884104 128.46705932 24.15482569 128.48818275 30.20107651 128.51974905 C36.02099816 128.54905005 41.84077859 128.556238 47.6607666 128.55504227 C50.13596047 128.55740652 52.61115682 128.56627604 55.08630371 128.581707 C58.5435164 128.60124581 61.9998045 128.59557646 65.45703125 128.58349609 C66.9969574 128.60035461 66.9969574 128.60035461 68.56799316 128.61755371 C74.00507 128.64391501 74.00507 128.64391501 78.73339844 126.25479126 C80.80528899 123.05212367 81.25596454 120.47654355 81.28712463 116.75068665 C81.29691345 115.86307648 81.30670227 114.97546631 81.31678772 114.06095886 C81.32254318 113.08991714 81.32829865 112.11887543 81.33422852 111.1184082 C81.34412811 110.09384521 81.35402771 109.06928223 81.36422729 108.01367188 C81.39585962 104.6211174 81.42060666 101.22854891 81.4453125 97.8359375 C81.46588052 95.4860955 81.48687695 93.13625722 81.50828552 90.78642273 C81.56352182 84.59686283 81.61292427 78.40726946 81.66113281 72.21765137 C81.71133643 65.90353409 81.76702845 59.58946552 81.82226562 53.27539062 C81.92986627 40.88285409 82.03130705 28.4902753 82.12890625 16.09765625 C81.79890625 16.09765625 81.46890625 16.09765625 81.12890625 16.09765625 C81.04640625 14.81890625 80.96390625 13.54015625 80.87890625 12.22265625 C80.5467539 8.94537851 80.5467539 8.94537851 78.37890625 6.59765625 C74.49511005 5.73459043 70.46652097 6.09737996 66.49914551 6.09524536 Z " fill="#282828" transform="translate(78.87109375,31.90234375)"/>
<path d="M0 0 C1.02901932 -0.0071553 2.05803864 -0.01431061 3.11824036 -0.02168274 C4.25176437 -0.02437164 5.38528839 -0.02706055 6.55316162 -0.02983093 C7.7435051 -0.03640213 8.93384857 -0.04297333 10.16026306 -0.04974365 C14.11381383 -0.06951323 18.06735136 -0.08114775 22.02093506 -0.09111023 C23.38223033 -0.0951578 24.7435254 -0.09927472 26.10482025 -0.10346031 C32.50137498 -0.12251467 38.89791816 -0.1367442 45.29449582 -0.14507228 C52.6755773 -0.15484092 60.05635858 -0.18114926 67.4373343 -0.22157317 C73.14358086 -0.25175103 78.84974147 -0.26654279 84.55606627 -0.26985329 C87.96350019 -0.27220227 91.3706135 -0.2811418 94.77796173 -0.30631447 C98.58217894 -0.33060292 102.38560973 -0.32975909 106.18988037 -0.32279968 C107.31530746 -0.33560974 108.44073456 -0.3484198 109.6002655 -0.36161804 C115.69545397 -0.32093369 119.63164634 -0.17070004 124.13031006 4.14717102 C125.82618308 7.62472267 126.38095043 10.41413707 126.38427734 14.26373291 C126.39273682 15.77558418 126.39273682 15.77558418 126.40136719 17.31797791 C126.39529449 18.96000687 126.39529449 18.96000687 126.38909912 20.63520813 C126.39435608 22.3774894 126.39435608 22.3774894 126.39971924 24.15496826 C126.4085223 27.99487788 126.40269189 31.83460327 126.39593506 35.67451477 C126.39728221 38.34342681 126.39922013 41.01233326 126.4017334 43.6812439 C126.4053694 49.27561945 126.40058409 54.86994216 126.39105225 60.46430969 C126.38017369 66.92348913 126.38369034 73.38254225 126.39470506 79.84171861 C126.40379473 85.39516908 126.40505485 90.94858161 126.39982772 96.50203711 C126.39671655 99.81541806 126.39706523 103.12872695 126.4029007 106.44210625 C126.4079809 110.13807073 126.40023404 113.83379293 126.38909912 117.52973938 C126.39314758 118.62240112 126.39719604 119.71506287 126.40136719 120.84083557 C126.33623127 132.51429732 126.33623127 132.51429732 122.19281006 137.45967102 C118.96656918 140.09932265 116.28164133 140.27316615 112.26098633 140.28088379 C111.25727997 140.28514877 110.25357361 140.28941376 109.2194519 140.29380798 C108.11914642 140.2933548 107.01884094 140.29290161 105.88519287 140.29243469 C104.72557037 140.2957933 103.56594788 140.29915192 102.3711853 140.3026123 C98.52525775 140.31213609 94.67937368 140.31406627 90.83343506 140.31513977 C88.8385507 140.3175402 86.84366633 140.31994228 84.8487823 140.32260019 C78.57217896 140.33074469 72.29558995 140.33318452 66.01898193 140.33247375 C59.55305588 140.33187371 53.08721346 140.34241095 46.62130857 140.35821742 C41.06449278 140.3713155 35.50770423 140.37665666 29.95087314 140.37601835 C26.63462636 140.37576392 23.31847035 140.3795092 20.00223541 140.3891964 C16.29908836 140.39899911 12.59615591 140.39611672 8.89300537 140.39009094 C7.80079681 140.39571045 6.70858826 140.40132996 5.58328247 140.40711975 C-6.98970283 140.35516114 -6.98970283 140.35516114 -11.74468994 136.70967102 C-13.95433774 133.64071575 -14.00406495 130.769782 -14.03704834 127.12599182 C-14.04853912 126.08862885 -14.06002991 125.05126587 -14.0718689 123.98246765 C-14.08297195 122.275905 -14.08297195 122.275905 -14.09429932 120.53486633 C-14.10568939 119.33622955 -14.11707947 118.13759277 -14.1288147 116.90263367 C-14.16389729 112.92687143 -14.19058691 108.95114314 -14.21343994 104.97529602 C-14.21738581 104.29830123 -14.22133167 103.62130644 -14.22539711 102.92379665 C-14.26181298 96.53611961 -14.29324757 90.14843137 -14.31450653 83.76068497 C-14.34207594 75.59831493 -14.39283929 67.43681429 -14.47498083 59.27480626 C-14.53082133 53.53116825 -14.55974935 47.78776578 -14.56897974 42.04386592 C-14.5752294 38.61543151 -14.59327678 35.18801723 -14.6403656 31.75988007 C-14.68645889 27.93156834 -14.68858355 24.10558058 -14.68023682 20.27705383 C-14.71563065 18.58263657 -14.71563065 18.58263657 -14.7517395 16.85398865 C-14.69340714 11.32717009 -14.40453741 8.0052667 -10.44403076 3.95155334 C-6.86297113 0.8941316 -4.70803177 0.02241978 0 0 Z M2.3883667 3.46577454 C1.27860977 3.52290115 0.16885284 3.58002777 -0.97453308 3.6388855 C-4.27041377 4.21752373 -6.21578466 5.11871427 -8.86968994 7.14717102 C-10.7844366 10.20744246 -11.12481807 12.57140036 -11.1438446 16.15020752 C-11.15381973 17.15817886 -11.16379486 18.16615021 -11.17407227 19.20466614 C-11.17473694 20.30451843 -11.17540161 21.40437073 -11.17608643 22.53755188 C-11.18440994 23.70053299 -11.19273346 24.8635141 -11.2013092 26.06173706 C-11.22543451 29.91186352 -11.23418385 33.76182071 -11.24078369 37.61201477 C-11.24748205 39.60938621 -11.25418259 41.60675766 -11.26121861 43.60412794 C-11.28267994 49.88402622 -11.29202317 56.16387048 -11.29522705 62.44380188 C-11.2988639 68.91848034 -11.32877236 75.39268523 -11.37063164 81.86721891 C-11.40533321 87.42998087 -11.42077544 92.99258581 -11.42147309 98.55545527 C-11.42226582 101.87628716 -11.43336929 105.19652683 -11.45947075 108.51727104 C-11.48626913 112.22106805 -11.48159299 115.9235518 -11.46905518 119.62739563 C-11.48388947 120.72522369 -11.49872375 121.82305176 -11.51400757 122.95414734 C-11.47029583 127.47945102 -11.32073468 130.35917126 -9.04747009 134.33068848 C-4.23507529 137.08154937 0.12049043 136.81274534 5.57415771 136.73066711 C6.73074387 136.73300354 7.88733002 136.73533997 9.07896423 136.73774719 C12.90122638 136.73936186 16.72228159 136.7053265 20.54437256 136.67060852 C23.19806868 136.66381999 25.85170472 136.65889875 28.50540161 136.65635681 C34.06542935 136.64716155 39.62511226 136.61965536 45.18499756 136.57929993 C53.02680033 136.52243368 60.86842988 136.50014104 68.71040654 136.48401523 C74.80091954 136.47005376 80.89139613 136.44547558 86.98187256 136.42060852 C88.28397297 136.41569775 89.58607338 136.41078697 90.92763138 136.40572739 C94.60023218 136.38949133 98.27270867 136.36608727 101.94525146 136.34004211 C103.58639671 136.33365219 103.58639671 136.33365219 105.26069641 136.32713318 C106.25887894 136.31853271 107.25706146 136.30993225 108.28549194 136.30107117 C109.15377939 136.29549887 110.02206684 136.28992657 110.91666603 136.28418541 C113.305672 136.23150414 113.305672 136.23150414 116.13031006 135.14717102 C116.13031006 134.48717102 116.13031006 133.82717102 116.13031006 133.14717102 C117.45031006 132.48717102 118.77031006 131.82717102 120.13031006 131.14717102 C120.13031006 130.48717102 120.13031006 129.82717102 120.13031006 129.14717102 C120.79031006 129.14717102 121.45031006 129.14717102 122.13031006 129.14717102 C122.2238484 113.75245813 122.29433573 98.35776657 122.33755875 82.96283627 C122.35816352 75.81430485 122.38624389 68.66595026 122.43206787 61.51753235 C122.47199991 55.28525771 122.49775803 49.05311116 122.50666404 42.82071215 C122.51186817 39.52215778 122.52616903 36.22405414 122.55323029 32.92559624 C122.58227459 29.23873564 122.58626544 25.55263351 122.58441162 21.86567688 C122.60598328 20.23432045 122.60598328 20.23432045 122.62799072 18.57000732 C122.59335352 12.20209088 121.84930332 8.36758275 118.13031006 3.14717102 C104.43830699 3.12391158 90.74630869 3.10618698 77.05428982 3.09535885 C70.69526403 3.09015963 64.33625185 3.08311626 57.97723389 3.07173157 C51.83046906 3.06079683 45.68371725 3.05487193 39.53694344 3.05229378 C37.20203509 3.05045849 34.86712739 3.04687497 32.53222466 3.04144096 C17.45515078 2.98210118 17.45515078 2.98210118 2.3883667 3.46577454 Z " fill="#8A8A8A" transform="translate(42.86968994140625,28.852828979492188)"/>
<path d="M0 0 C1.08803421 -0.00708481 2.17606842 -0.01416962 3.29707336 -0.02146912 C5.08015648 -0.01775299 5.08015648 -0.01775299 6.89926147 -0.01396179 C8.78263466 -0.02162819 8.78263466 -0.02162819 10.70405579 -0.02944946 C14.1439558 -0.04283159 17.58374589 -0.04341933 21.02366686 -0.04088616 C23.89424219 -0.03981652 26.76479528 -0.04469933 29.63536584 -0.04949158 C36.40417482 -0.06058274 43.17292828 -0.06102553 49.94174194 -0.05497742 C56.93099409 -0.04892863 63.92004538 -0.06127233 70.90926325 -0.08254749 C76.90764007 -0.10013689 82.90595278 -0.10616932 88.90435445 -0.10290974 C92.48816796 -0.10109343 96.07183799 -0.10376801 99.6556282 -0.11762428 C103.64707657 -0.13248014 107.63826671 -0.1232559 111.62973022 -0.11161804 C112.82250076 -0.11926178 114.0152713 -0.12690552 115.2441864 -0.13478088 C116.32658096 -0.12776657 117.40897552 -0.12075226 118.52416992 -0.11352539 C119.46842142 -0.11369313 120.41267292 -0.11386087 121.3855381 -0.1140337 C122.12789396 0.00962724 122.87024982 0.13328817 123.63510132 0.26069641 C124.62510132 1.74569641 124.62510132 1.74569641 125.63510132 3.26069641 C128.19792874 3.99035007 128.19792874 3.99035007 130.63510132 4.26069641 C130.63510132 6.57069641 130.63510132 8.88069641 130.63510132 11.26069641 C131.62510132 11.26069641 132.61510132 11.26069641 133.63510132 11.26069641 C134.76010132 17.01069641 134.76010132 17.01069641 133.63510132 19.26069641 C134.29510132 19.26069641 134.95510132 19.26069641 135.63510132 19.26069641 C135.6818336 34.68999984 135.71709619 50.11929797 135.73872566 65.54865551 C135.74903579 72.71286574 135.76309107 79.87703199 135.78598022 87.04121399 C135.80592218 93.28592038 135.81881967 99.53059492 135.82327831 105.77533227 C135.82588433 109.08151071 135.83305464 112.38757681 135.84656143 115.69373131 C135.86104635 119.38562332 135.86308049 123.07732555 135.8621521 126.76924133 C135.86934265 127.86400284 135.8765332 128.95876434 135.88394165 130.08670044 C135.88119232 131.09485809 135.87844299 132.10301575 135.87561035 133.14172363 C135.87745394 134.01466159 135.87929752 134.88759954 135.88119698 135.78699017 C135.60310268 138.58234057 134.77697399 140.70551138 133.63510132 143.26069641 C133.38760132 143.94132141 133.14010132 144.62194641 132.88510132 145.32319641 C129.63009901 150.36844999 123.26504276 152.80067365 117.63510132 154.26069641 C113.62531991 154.66676148 109.64679829 154.6406658 105.61947632 154.60127258 C104.43812607 154.60171066 103.25677582 154.60214874 102.03962708 154.6026001 C98.15461407 154.60051856 94.27003847 154.57721661 90.38510132 154.55366516 C87.68368776 154.54639446 84.98227464 154.54365025 82.28085327 154.540802 C75.90971249 154.53150355 69.53872742 154.50691987 63.16765499 154.47675353 C55.91007216 154.44314069 48.65248162 154.42670627 41.39484024 154.41166723 C26.47484073 154.38036811 11.55498665 154.32765083 -3.36489868 154.26069641 C-3.36489868 153.60069641 -3.36489868 152.94069641 -3.36489868 152.26069641 C-5.01489868 152.26069641 -6.66489868 152.26069641 -8.36489868 152.26069641 C-8.36489868 151.60069641 -8.36489868 150.94069641 -8.36489868 150.26069641 C-2.07681397 149.13178347 4.06561158 149.14647856 10.44198608 149.19477844 C11.61355255 149.19945129 12.78511902 149.20412415 13.9921875 149.2089386 C16.52831013 149.21941592 19.06442451 149.23207019 21.60052681 149.24666214 C25.61432828 149.26871672 29.62808003 149.28306241 33.641922 149.2943573 C45.05141601 149.32769825 56.46083531 149.36945564 67.87020874 149.43208313 C74.18088746 149.46663971 80.49151186 149.49042508 86.80227512 149.50229156 C90.13699611 149.50904979 93.47130362 149.52317741 96.80597115 149.54732132 C100.52328551 149.57377439 104.24021434 149.58169113 107.95761108 149.58540344 C109.60591667 149.60393875 109.60591667 149.60393875 111.28752136 149.62284851 C116.80592965 149.60830192 120.91359642 149.47330552 125.63510132 146.26069641 C126.65310708 144.94105932 127.65758496 143.61059995 128.63510132 142.26069641 C129.62510132 142.26069641 130.61510132 142.26069641 131.63510132 142.26069641 C131.57452453 125.5619611 131.49699486 108.8634034 131.39938641 92.16484737 C131.35445669 84.41108498 131.31503556 76.65736823 131.28866577 68.90351868 C131.26566276 62.1437816 131.23223913 55.3841893 131.18639976 48.62456709 C131.16249842 45.04671663 131.14374949 41.46900928 131.13748741 37.89108086 C131.13029429 33.89290381 131.09983276 29.89522363 131.06747437 25.89717102 C131.06890945 24.71609268 131.07034454 23.53501434 131.07182312 22.31814575 C131.0027382 16.28445215 130.8997267 11.44470825 127.63510132 6.26069641 C124.05416074 4.4262107 121.08589923 4.00728114 117.09420776 3.99327087 C115.99230606 3.98474091 114.89040436 3.97621094 113.75511169 3.96742249 C112.55599655 3.96832886 111.35688141 3.96923523 110.12142944 3.97016907 C108.85101303 3.96345184 107.58059662 3.95673462 106.27168274 3.94981384 C102.79446191 3.93218053 99.31733957 3.92745971 95.84007835 3.92618227 C93.66656347 3.92475905 91.4930735 3.92048631 89.31956482 3.91518784 C81.73413507 3.89669919 74.14877552 3.88851611 66.56332397 3.89009094 C59.49624056 3.89129332 52.42946207 3.87016942 45.36245584 3.83860362 C39.29012572 3.81244857 33.21789527 3.80172325 27.14550924 3.80300176 C23.52076071 3.80351146 19.89628352 3.79782399 16.27159119 3.77664566 C12.23043963 3.75367688 8.18997193 3.76277928 4.14877319 3.77485657 C2.35010048 3.75799805 2.35010048 3.75799805 0.51509094 3.74079895 C-5.7308713 3.77498467 -5.7308713 3.77498467 -11.52200317 5.8535614 C-16.44871244 12.28868174 -15.64024184 19.87795627 -15.59194946 27.6217804 C-15.59238754 29.46673851 -15.59238754 29.46673851 -15.59283447 31.34896851 C-15.59168393 34.7039167 -15.58168759 38.05861553 -15.56768656 41.41351962 C-15.55514221 44.92621541 -15.55400579 48.4389149 -15.55163574 51.95162964 C-15.54543182 58.59546375 -15.52903582 65.23923165 -15.50893676 71.88303667 C-15.4865438 79.45015573 -15.47557581 87.01727803 -15.46554589 94.58442199 C-15.44466856 110.14321841 -15.40951386 125.70194886 -15.36489868 141.26069641 C-18.74878447 137.87681062 -18.48980022 133.70294638 -18.50534058 129.10617065 C-18.51105072 128.08985565 -18.51676086 127.07354065 -18.52264404 126.02642822 C-18.5237619 124.92239151 -18.52487976 123.8183548 -18.52603149 122.68086243 C-18.5309964 121.50958801 -18.5359613 120.3383136 -18.54107666 119.13154602 C-18.55567503 115.25922559 -18.56249553 111.38694608 -18.56802368 107.51460266 C-18.57076061 106.17837436 -18.57361709 104.8421463 -18.57659149 103.5059185 C-18.5902512 97.23004006 -18.59992638 90.95417459 -18.60379338 84.67828232 C-18.60827621 77.44387551 -18.62584078 70.20965743 -18.65479398 62.975308 C-18.6764262 57.37515585 -18.68649841 51.77505676 -18.6878345 46.17486328 C-18.68888107 42.83344877 -18.69620917 39.49235323 -18.71265411 36.15095711 C-18.72969214 32.42380033 -18.72783979 28.69710476 -18.72134399 24.96992493 C-18.73055878 23.86791245 -18.73977356 22.76589996 -18.74926758 21.63049316 C-18.71483705 15.3298306 -18.33766017 10.52677036 -13.90005493 5.65132141 C-9.11468238 1.94487901 -6.09701263 0.01324476 0 0 Z " fill="#DBDBDB" transform="translate(40.364898681640625,21.739303588867188)"/>
<path d="M0 0 C2.37752757 0.00186879 4.75505552 0.00329051 7.13258362 0.00428772 C13.34173679 0.00807665 19.55086597 0.01787533 25.76000977 0.0289917 C32.11539384 0.0392844 38.47078184 0.04380206 44.82617188 0.04882812 C57.26042711 0.0595014 69.69466467 0.07653345 82.12890625 0.09765625 C86.55007523 6.30372353 86.68198693 11.33086604 86.58300781 18.81616211 C86.58359192 19.97785919 86.58417603 21.13955627 86.58477783 22.3364563 C86.58199936 26.16211204 86.55091663 29.98698098 86.51953125 33.8125 C86.51206802 36.47051818 86.50617864 39.12849323 86.50238037 41.78651428 C86.48997542 48.05858365 86.45718789 54.33037229 86.41698241 60.60231835 C86.37218701 67.74619859 86.35025822 74.89009263 86.33020067 82.03407848 C86.28845271 96.72208094 86.21814934 111.40986369 86.12890625 126.09765625 C85.46890625 126.09765625 84.80890625 126.09765625 84.12890625 126.09765625 C83.46890625 127.41765625 82.80890625 128.73765625 82.12890625 130.09765625 C81.46890625 129.76765625 80.80890625 129.43765625 80.12890625 129.09765625 C80.61622726 128.33146469 81.10354828 127.56527313 81.6056366 126.77586365 C83.65360135 121.83068595 83.54114347 117.5461244 83.5012207 112.24633789 C83.50487137 111.16430588 83.50852203 110.08227386 83.51228333 108.967453 C83.52037658 105.39741223 83.50678747 101.82782711 83.4921875 98.2578125 C83.49166871 95.77208964 83.49218714 93.28636637 83.49369812 90.80064392 C83.49359697 84.92652192 83.47873144 79.05256638 83.45804709 73.17848438 C83.43836507 67.17583256 83.44252978 61.17334693 83.44860554 55.17066288 C83.45195025 50.03793836 83.4453057 44.90526533 83.4354763 39.77255058 C83.43163183 37.31380928 83.43047296 34.85506223 83.43206215 32.39631844 C83.43243379 28.95689144 83.41978397 25.51775275 83.40356445 22.07836914 C83.40604187 21.06567963 83.40851929 20.05299011 83.41107178 19.00961304 C83.37079606 13.64693082 82.90064738 9.16988447 81.12890625 4.09765625 C65.69962316 4.02755792 50.27035199 3.97466404 34.84094715 3.94221973 C27.67670682 3.92675448 20.51256547 3.90567159 13.34838867 3.87133789 C7.1036819 3.84142495 0.85904681 3.82207876 -5.38572961 3.81539077 C-8.69196483 3.81148166 -11.9979473 3.80072644 -15.30412865 3.78046608 C-18.99608982 3.7587383 -22.68762401 3.75568746 -26.37963867 3.75708008 C-28.02178093 3.74090134 -28.02178093 3.74090134 -29.69709778 3.72439575 C-36.83517388 3.6280524 -36.83517388 3.6280524 -42.87109375 7.09765625 C-43.84761732 10.02722695 -43.9945888 11.88881473 -43.99134827 14.93815613 C-43.99272293 15.9351503 -43.9940976 16.93214447 -43.99551392 17.95935059 C-43.99191864 19.0519519 -43.98832336 20.14455322 -43.98461914 21.27026367 C-43.98476517 22.42162308 -43.98491119 23.57298248 -43.98506165 24.75923157 C-43.98436366 28.57388172 -43.97657654 32.38848335 -43.96875 36.203125 C-43.96688542 38.8444262 -43.9654617 41.48572775 -43.96446228 44.12702942 C-43.96135323 50.37431454 -43.95314557 56.62158217 -43.94311279 62.86885959 C-43.93193845 69.98124606 -43.92643787 77.09363337 -43.92141736 84.20602643 C-43.91096261 98.83657873 -43.89337139 113.46711724 -43.87109375 128.09765625 C-37.72812647 131.33354389 -32.48115473 131.53950114 -25.61157227 131.5300293 C-24.49864304 131.54022095 -23.38571381 131.5504126 -22.23905945 131.56091309 C-18.57598816 131.591005 -14.91317857 131.60030353 -11.25 131.609375 C-8.70408766 131.62622444 -6.15818363 131.64437504 -3.61228943 131.66377258 C2.39401866 131.70640217 8.40025213 131.73594976 14.40665537 131.75909597 C21.24836356 131.78619587 28.08993211 131.83010426 34.93154037 131.87538469 C48.99725304 131.96810256 63.06300989 132.03984194 77.12890625 132.09765625 C77.12890625 132.42765625 77.12890625 132.75765625 77.12890625 133.09765625 C61.69968825 133.21448631 46.27050335 133.30264273 30.84094715 133.35671711 C23.67661053 133.38249288 16.51254883 133.41763081 9.34838867 133.47485352 C3.1036807 133.52470843 -3.14082816 133.55695185 -9.38572961 133.56809872 C-12.69214652 133.57461425 -15.99786139 133.59253839 -19.30412865 133.62630653 C-22.99631108 133.66252167 -26.68730765 133.66760444 -30.37963867 133.6652832 C-32.02178093 133.69224777 -32.02178093 133.69224777 -33.69709778 133.71975708 C-38.21563211 133.68895105 -41.08309517 133.54781096 -45.05085754 131.28117371 C-47.8110596 126.45369505 -47.55253363 122.0658836 -47.48632812 116.59375 C-47.49187714 115.43062286 -47.49742615 114.26749573 -47.50314331 113.06912231 C-47.51495482 109.22404803 -47.49064678 105.38014815 -47.46484375 101.53515625 C-47.46313301 98.86383377 -47.4630948 96.19255768 -47.46496582 93.52124023 C-47.46491228 87.9225438 -47.44517787 82.32418526 -47.41308594 76.72558594 C-47.37619446 70.25836021 -47.36741071 63.79157698 -47.37438345 57.32425976 C-47.38069488 51.09584278 -47.3699224 44.8675771 -47.35041809 38.63919067 C-47.34338261 35.9917983 -47.34026422 33.34439255 -47.34111023 30.69699097 C-47.33931424 26.99826853 -47.31794782 23.30017613 -47.29101562 19.6015625 C-47.29394623 18.50530548 -47.29687683 17.40904846 -47.29989624 16.27957153 C-47.19297245 6.77075404 -47.19297245 6.77075404 -43.87109375 3.09765625 C-34.05428959 -3.84840062 -11.40911368 -0.02655238 0 0 Z " fill="#454545" transform="translate(78.87109375,31.90234375)"/>
<path d="M0 0 C1.18599289 -0.00408875 2.37198578 -0.00817749 3.59391785 -0.01239014 C6.83391649 -0.01736412 10.07237543 0.00432899 13.31215453 0.03866386 C16.70597992 0.06882129 20.09979169 0.06638968 23.49372864 0.06799316 C29.18907416 0.07536717 34.88393595 0.10524856 40.57910156 0.15039062 C47.88987619 0.2082205 55.20026244 0.22884689 62.51124096 0.23775482 C68.80008832 0.24571298 75.08885127 0.2707094 81.3776381 0.29844856 C83.39826849 0.30664291 85.41889591 0.3124958 87.43953514 0.31803894 C91.20073226 0.33174278 94.96157257 0.35899486 98.72265625 0.390625 C100.40352325 0.39397858 100.40352325 0.39397858 102.11834717 0.3973999 C103.65131691 0.41453033 103.65131691 0.41453033 105.21525574 0.43200684 C106.1043674 0.43795616 106.99347906 0.44390549 107.9095335 0.4500351 C110.16723633 0.71289062 110.16723633 0.71289062 113.16723633 2.71289062 C111.86004135 2.72319809 110.55284637 2.73350555 109.20603943 2.74412537 C96.83439125 2.84225228 84.46278898 2.94502001 72.09121609 3.05222988 C65.73221367 3.10718947 59.37320649 3.16056349 53.01416016 3.21020508 C46.86735988 3.25824993 40.72060948 3.31060192 34.57386971 3.36583138 C32.23897623 3.38607482 29.90406918 3.40481524 27.56915092 3.42196465 C12.49180544 3.51340972 12.49180544 3.51340972 -2.57470703 4.04516602 C-4.23934242 4.12789513 -4.23934242 4.12789513 -5.93760681 4.21229553 C-9.20963092 4.7780539 -11.19308816 5.71217749 -13.83276367 7.71289062 C-14.81005542 10.64476587 -14.96504892 12.54769512 -14.97993469 15.60240173 C-14.98709 16.61044357 -14.9942453 17.61848541 -15.00161743 18.65707397 C-15.00430634 19.76209259 -15.00699524 20.86711121 -15.00976562 22.00561523 C-15.01633682 23.17005661 -15.02290802 24.33449799 -15.02967834 25.53422546 C-15.04941961 29.39456238 -15.06107385 33.25486044 -15.07104492 37.11523438 C-15.07512045 38.43139803 -15.07919598 39.74756168 -15.083395 41.10360909 C-15.10243686 47.34745048 -15.11667218 53.5912801 -15.12500697 59.83514494 C-15.13478781 67.0430477 -15.16113315 74.25064406 -15.20150787 81.45843881 C-15.2316497 87.03049289 -15.24647383 92.602459 -15.24978799 98.17459303 C-15.25213998 101.50260484 -15.26308626 104.83021357 -15.28624916 108.15815544 C-15.31048011 111.86927891 -15.30970488 115.57959388 -15.30273438 119.29077148 C-15.31554443 120.39376587 -15.32835449 121.49676025 -15.34155273 122.63317871 C-15.33460892 123.64404037 -15.3276651 124.65490204 -15.32051086 125.69639587 C-15.32289922 126.57373351 -15.32528757 127.45107115 -15.3277483 128.35499477 C-14.65078687 131.57975059 -13.4474815 132.75214665 -10.83276367 134.71289062 C-8.39989231 135.29776188 -8.39989231 135.29776188 -5.72015381 135.19390869 C-4.68812836 135.19940735 -3.65610291 135.20490601 -2.59280396 135.21057129 C-1.46639496 135.19619019 -0.33998596 135.18180908 0.82055664 135.16699219 C2.60633621 135.16786835 2.60633621 135.16786835 4.42819214 135.16876221 C7.68845685 135.16645389 10.9480337 135.14640232 14.20816135 135.11846638 C17.61675079 135.09345117 21.02535393 135.09111065 24.434021 135.08636475 C30.88680725 135.07393524 37.33932225 135.04111425 43.79198909 135.00096679 C51.13894119 134.95624807 58.48590628 134.93426183 65.83296061 134.91418505 C80.94453696 134.87238138 96.05585951 134.80203009 111.16723633 134.71289062 C111.16723633 134.05289063 111.16723633 133.39289063 111.16723633 132.71289062 C113.04223633 130.58789062 113.04223633 130.58789062 115.16723633 128.71289062 C115.82723633 128.71289062 116.48723633 128.71289062 117.16723633 128.71289062 C117.16723633 89.77289063 117.16723633 50.83289062 117.16723633 10.71289062 C117.49723633 10.71289062 117.82723633 10.71289062 118.16723633 10.71289062 C118.23727682 26.6982648 118.29020009 42.6835893 118.32267284 58.66907978 C118.33815039 66.09120624 118.35925674 73.51323742 118.39355469 80.93530273 C118.42343003 87.40339301 118.44280488 93.8714143 118.44950181 100.33957165 C118.45341728 103.76533527 118.46263726 107.19090151 118.4844265 110.61660194 C118.50853736 114.43820558 118.50920752 118.25961504 118.5078125 122.08129883 C118.51859833 123.22065384 118.52938416 124.36000885 118.54049683 125.53388977 C118.53637283 126.57295471 118.53224884 127.61201965 118.52799988 128.68257141 C118.53076526 129.58685033 118.53353064 130.49112925 118.53637981 131.42281055 C118.08965794 134.19416887 117.40409323 135.06138696 115.16723633 136.71289062 C109.10613094 138.09466156 102.9016858 137.86750179 96.71166992 137.87402344 C95.57751144 137.87898834 94.44335297 137.88395325 93.27482605 137.8890686 C89.53843573 137.90362607 85.80208779 137.91047937 82.06567383 137.91601562 C79.4644877 137.92176967 76.86330159 137.92752738 74.26211548 137.93328857 C69.51154465 137.94243996 64.76099069 137.94874953 60.01041257 137.95178533 C53.02674533 137.95627386 46.04327305 137.97387107 39.05966508 138.00278592 C32.99787955 138.02700996 26.93618634 138.03472948 20.87434769 138.03646088 C18.2995052 138.03949039 15.72466361 138.04752889 13.14985275 138.06064606 C9.55442136 138.07766455 5.95946879 138.075837 2.36401367 138.06933594 C1.29895096 138.07855072 0.23388824 138.0877655 -0.8634491 138.09725952 C-7.18261251 138.06139332 -10.63458302 137.33996759 -15.58276367 133.27539062 C-18.07236444 130.16338967 -17.96334929 126.52994565 -17.99339294 122.67861938 C-18.00343857 121.66367905 -18.01348419 120.64873871 -18.02383423 119.6030426 C-18.02966522 118.49541061 -18.03549622 117.38777863 -18.04150391 116.24658203 C-18.05128769 115.07545364 -18.06107147 113.90432526 -18.07115173 112.69770813 C-18.10108152 108.81997807 -18.12278908 104.94224987 -18.14135742 101.06445312 C-18.14465474 100.40393558 -18.14795207 99.74341804 -18.15134931 99.06288481 C-18.18211785 92.83058129 -18.20881508 86.59827274 -18.22576809 80.3659153 C-18.24768377 72.40391293 -18.28969328 64.44258398 -18.35920566 56.48085082 C-18.40647102 50.8764803 -18.43070458 45.27229139 -18.43796498 39.66772783 C-18.44291625 36.32256801 -18.46097546 32.9787709 -18.49770927 29.63371658 C-18.5365004 25.90126994 -18.53767358 22.17058767 -18.52978516 18.43798828 C-18.54978577 17.33440475 -18.56978638 16.23082123 -18.59039307 15.09379578 C-18.5467137 10.49484586 -18.50115589 6.70955006 -15.52874756 3.02462769 C-10.99760374 -0.63716788 -5.55418816 -0.09184458 0 0 Z " fill="#717171" transform="translate(47.832763671875,29.287109375)"/>
<path d="M0 0 C1.06687042 -0.00563965 2.13374084 -0.0112793 3.23294067 -0.01708984 C4.39824814 -0.01304138 5.5635556 -0.00899292 6.76417542 -0.00482178 C8.61105957 -0.01007874 8.61105957 -0.01007874 10.49525452 -0.01544189 C13.86929904 -0.02273664 17.2430983 -0.02102572 20.61712909 -0.01468372 C24.15020243 -0.00961728 27.68326535 -0.01431708 31.21633911 -0.01745605 C37.15043517 -0.0210943 43.08448145 -0.01630083 49.01856995 -0.0067749 C55.87480394 0.00410439 62.73091894 0.00058736 69.58715004 -0.01042771 C75.47686703 -0.01951062 81.36654825 -0.02078081 87.25626999 -0.01555037 C90.77251482 -0.01243555 94.28870377 -0.01200783 97.80494499 -0.01862335 C101.72629782 -0.02548568 105.64751795 -0.0159676 109.56886292 -0.00482178 C110.73214615 -0.00887024 111.89542938 -0.0129187 113.09396362 -0.01708984 C114.69849899 -0.00863037 114.69849899 -0.00863037 116.33544922 0 C117.26218665 0.00075405 118.18892408 0.0015081 119.14374447 0.002285 C122.06833355 0.28675852 124.14211412 0.85853902 126.73121643 2.25396729 C130.67938569 8.32284859 130.15780511 16.42340054 130.11940002 23.36383057 C130.12728546 25.13383926 130.12728546 25.13383926 130.1353302 26.93960571 C130.14847302 30.81796729 130.13981312 34.69591445 130.12965393 38.57427979 C130.13032301 41.27992075 130.1345844 43.98555446 130.13835144 46.69119263 C130.14379366 52.35164844 130.13665632 58.01198643 130.12232971 63.67242432 C130.10599025 70.20329274 130.11130712 76.73388034 130.12780893 83.26474202 C130.14144887 88.88963912 130.14333172 94.514452 130.13549292 100.13936031 C130.13083212 103.4913302 130.13133735 106.8430628 130.14010239 110.19504166 C130.14772994 113.93118481 130.13609405 117.66678993 130.11940002 121.40289307 C130.12547272 122.50437683 130.13154541 123.6058606 130.13780212 124.74072266 C130.08281686 131.39099448 129.63781151 136.49356322 125.44751549 141.91475391 C123.09850596 143.74766582 121.56906581 143.62872765 118.60719299 143.62818909 C117.54722107 143.6352034 116.48724915 143.64221771 115.39515686 143.64944458 C114.23246277 143.64180084 113.06976868 143.6341571 111.87184143 143.62628174 C110.64727234 143.6299324 109.42270325 143.63358307 108.161026 143.63734436 C104.80140307 143.64406844 101.44233253 143.63732608 98.08276367 143.62401223 C94.56877087 143.61270267 91.05479251 143.61680486 87.54078674 143.61875916 C81.63937111 143.61964229 75.73807031 143.60855775 69.83668518 143.59014893 C63.01166758 143.56898095 56.18681822 143.56547129 49.36177444 143.57171088 C42.79914883 143.57740365 36.23658252 143.57175993 29.67396545 143.56053734 C26.87976486 143.55589017 24.08560051 143.555018 21.29139709 143.55712318 C17.39106469 143.55935483 13.49089263 143.54490401 9.59059143 143.52862549 C8.42789734 143.53110291 7.26520325 143.53358032 6.067276 143.53613281 C4.47731812 143.5255056 4.47731812 143.5255056 2.85523987 143.5146637 C1.93273438 143.51261083 1.01022888 143.51055796 0.05976868 143.50844288 C-2.26878357 143.25396729 -2.26878357 143.25396729 -5.26878357 141.25396729 C-4.63432973 141.25488908 -3.99987589 141.25581087 -3.34619617 141.2567606 C12.09417798 141.27884861 27.53454663 141.29539485 42.97493267 141.30577946 C50.4417954 141.3109349 57.90864758 141.31796331 65.37550354 141.32940674 C71.88389827 141.33937651 78.39228536 141.34582619 84.90068752 141.34805578 C88.34655854 141.34935898 91.7924077 141.35242019 95.23827171 141.35969734 C99.08577762 141.36775673 102.93326218 141.36795694 106.78077698 141.36749268 C107.92229218 141.37108795 109.06380737 141.37468323 110.23991394 141.37838745 C111.29014236 141.37701279 112.34037079 141.37563812 113.42242432 141.3742218 C114.33223399 141.37514359 115.24204367 141.37606539 116.17942333 141.37701511 C118.78603943 141.25132371 121.18955004 140.83128026 123.73121643 140.25396729 C126.65817082 133.19893158 127.16202693 126.89496434 127.11940002 119.31182861 C127.12465698 118.14972366 127.12991394 116.98761871 127.1353302 115.79029846 C127.14846981 111.97205937 127.13981488 108.15424142 127.12965393 104.33599854 C127.13167598 101.67280056 127.13458426 99.00961512 127.13835144 96.34642029 C127.14379288 90.77592447 127.13665757 85.2055484 127.12232971 79.6350708 C127.10598211 73.20529165 127.11131331 66.77579762 127.12780893 60.34602529 C127.14144123 54.8094654 127.14333569 49.27299111 127.13549292 43.73641986 C127.13082902 40.43648144 127.13134404 37.13670567 127.14010239 33.83677101 C127.14772135 30.16029178 127.13610653 26.48436076 127.11940002 22.80792236 C127.12850906 21.17835602 127.12850906 21.17835602 127.13780212 19.51586914 C127.09208871 14.08536051 127.01671091 9.82861267 123.73121643 5.25396729 C120.65551197 3.30778666 118.23961171 2.99561699 114.63447571 2.96635437 C113.60559738 2.95348892 112.57671906 2.94062347 111.5166626 2.92736816 C110.39347122 2.9235614 109.27027985 2.91975464 108.11305237 2.91583252 C106.33191795 2.89852837 106.33191795 2.89852837 104.51480103 2.88087463 C101.26045779 2.85245678 98.00625331 2.83336116 94.75181484 2.82065845 C92.71614202 2.81256322 90.68048927 2.80238223 88.6448288 2.79164314 C82.26857036 2.75893395 75.89236099 2.73503143 69.51603007 2.72282928 C62.16865739 2.70858368 54.82224679 2.66473838 47.47519279 2.59532779 C41.78754737 2.54345721 36.10017477 2.51864922 30.41229653 2.51400715 C27.01908696 2.51061694 23.62685092 2.49588783 20.23389435 2.45272636 C16.44415476 2.4112957 12.65684693 2.4141145 8.86695862 2.42755127 C7.19431694 2.39451401 7.19431694 2.39451401 5.48788452 2.36080933 C0.21730965 2.4242137 -3.63323505 2.8906617 -7.96476746 6.04452515 C-11.8233359 10.00410157 -12.22822842 13.60334866 -12.3276062 18.99411011 C-12.30819473 20.12843475 -12.28878326 21.2627594 -12.26878357 22.43145752 C-12.27970535 23.64192245 -12.29062714 24.85238739 -12.30187988 26.09953308 C-12.32394186 29.40200265 -12.31086459 32.70075823 -12.28186417 36.00293231 C-12.25991047 39.45969057 -12.28327869 42.91614295 -12.30174255 46.37287903 C-12.32982709 52.91068559 -12.31743008 59.44775707 -12.29031849 65.98554236 C-12.26142302 73.43185763 -12.2779148 80.87785896 -12.29813004 88.32417762 C-12.33868173 103.6343153 -12.32252569 118.94385258 -12.26878357 134.25396729 C-12.59878357 134.25396729 -12.92878357 134.25396729 -13.26878357 134.25396729 C-13.3623096 118.07692525 -13.43280313 101.89997119 -13.47603226 85.72272396 C-13.49663964 78.21099231 -13.5247251 70.69942886 -13.57054138 63.18780518 C-13.61046532 56.63910433 -13.63622964 50.09052531 -13.64513755 43.54170614 C-13.65034299 40.07550664 -13.66253887 36.60965563 -13.6917038 33.14356804 C-13.72403117 29.27006474 -13.72473941 25.39689942 -13.72288513 21.52325439 C-13.73726624 20.37957901 -13.75164734 19.23590363 -13.76646423 18.05757141 C-13.73298799 11.59573627 -13.2893629 7.42654604 -9.26878357 2.25396729 C-6.14409959 0.24614137 -3.67602496 0.00299226 0 0 Z " fill="#ABABAB" transform="translate(41.26878356933594,26.74603271484375)"/>
<path d="M0 0 C0.309375 0.639375 0.61875 1.27875 0.9375 1.9375 C1.8345163 3.93610821 1.8345163 3.93610821 3 5 C3.10422508 6.43427026 3.13961503 7.87361319 3.14717102 9.31164551 C3.15790398 10.70777573 3.15790398 10.70777573 3.16885376 12.1321106 C3.17154266 13.16165863 3.17423157 14.19120667 3.17700195 15.25195312 C3.18357315 16.33004242 3.19014435 17.40813171 3.19691467 18.51889038 C3.21671182 22.10634421 3.22832731 25.69375597 3.23828125 29.28125 C3.24235678 30.50474655 3.2464323 31.7282431 3.25063133 32.98881531 C3.26936622 38.80072092 3.28392185 44.61260994 3.2922433 50.42454004 C3.3010248 56.45794896 3.32025397 62.49110535 3.35668945 68.52441406 C3.39515253 74.99653471 3.41393418 81.46842774 3.41844749 87.94065857 C3.42331382 90.4061457 3.43492903 92.87162929 3.45348549 95.33705139 C3.47789141 98.79593099 3.47690817 102.25395086 3.4699707 105.71289062 C3.48918579 107.23292191 3.48918579 107.23292191 3.50878906 108.78366089 C3.46083038 115.36787613 2.15873506 120.21611661 -1 126 C-16.13397107 126.0701572 -31.26793462 126.12302102 -46.4020319 126.15543652 C-53.4294536 126.17088931 -60.45677411 126.19194828 -67.48413086 126.22631836 C-74.26628515 126.2594733 -81.04833426 126.27685514 -87.8305645 126.28463173 C-90.41771537 126.29017351 -93.00486051 126.3009952 -95.59196663 126.31719017 C-99.2164667 126.33897615 -102.84053284 126.34196635 -106.46508789 126.34057617 C-107.53395737 126.351362 -108.60282684 126.36214783 -109.7040863 126.3732605 C-121.67640737 126.32359263 -121.67640737 126.32359263 -126 122 C-126.10014438 120.47603518 -126.1307551 118.94744534 -126.13371277 117.42019653 C-126.13797775 116.43028717 -126.14224274 115.44037781 -126.14663696 114.42047119 C-126.14618378 113.32539246 -126.14573059 112.23031372 -126.14526367 111.10205078 C-126.14862228 109.95580231 -126.1519809 108.80955383 -126.15544128 107.62857056 C-126.16498525 103.81747369 -126.16689616 100.00642059 -126.16796875 96.1953125 C-126.17117908 93.55833925 -126.17454298 90.92136618 -126.17805481 88.28439331 C-126.1844579 82.74769809 -126.1859365 77.21101483 -126.18530273 71.67431641 C-126.18470207 65.27083632 -126.19524972 58.86744051 -126.2110464 52.46398175 C-126.22568717 46.31036984 -126.22929108 40.15679844 -126.22869301 34.00317001 C-126.22987649 31.38202444 -126.23431874 28.76087831 -126.24202538 26.1397438 C-126.25178082 22.47867011 -126.24896469 18.81781521 -126.24291992 15.15673828 C-126.24853943 14.06570801 -126.25415894 12.97467773 -126.25994873 11.85058594 C-126.25575424 10.85503693 -126.25155975 9.85948792 -126.24723816 8.83377075 C-126.24778293 7.96766237 -126.24832769 7.10155399 -126.24888897 6.20919991 C-126 4 -126 4 -124 1 C-124 40.93 -124 80.86 -124 122 C-120.0225948 122.66290087 -116.88359607 123.12520892 -112.97077942 123.12698364 C-111.52609032 123.13121338 -111.52609032 123.13121338 -110.05221558 123.13552856 C-109.01251617 123.13350433 -107.97281677 123.1314801 -106.90161133 123.12939453 C-105.793647 123.13114685 -104.68568268 123.13289917 -103.54414368 123.13470459 C-99.89009017 123.139098 -96.23608523 123.13619453 -92.58203125 123.1328125 C-90.04188528 123.13348612 -87.50173938 123.13445662 -84.96159363 123.13571167 C-79.64309006 123.13718512 -74.32460387 123.13514044 -69.00610352 123.13037109 C-62.85759171 123.12492111 -56.70911302 123.12669864 -50.56060201 123.1321975 C-44.64031499 123.13728014 -38.72003827 123.13674523 -32.79974937 123.13381577 C-30.28187747 123.13314753 -27.76400472 123.13397134 -25.2461338 123.13629532 C-21.73413453 123.13882616 -18.22219955 123.13497546 -14.71020508 123.12939453 C-13.14154694 123.13243088 -13.14154694 123.13243088 -11.54119873 123.13552856 C-10.58653214 123.13270874 -9.63186554 123.12988892 -8.64826965 123.12698364 C-7.81815274 123.12660662 -6.98803583 123.12622959 -6.13276386 123.12584114 C-3.81167485 123.08155829 -3.81167485 123.08155829 -1 122 C0.14252169 119.05549671 0.12358466 116.16958306 0.12025452 113.03924561 C0.12162918 112.04087677 0.12300385 111.04250793 0.12442017 110.0138855 C0.12082489 108.92487946 0.11722961 107.83587341 0.11352539 106.71386719 C0.11367142 105.56236176 0.11381744 104.41085632 0.1139679 103.22445679 C0.11327078 99.41524375 0.1054877 95.6060795 0.09765625 91.796875 C0.09579136 89.15700304 0.09436779 86.51713073 0.09336853 83.8772583 C0.09026147 77.63708966 0.08205651 71.39693855 0.07201904 65.15677762 C0.06083849 58.05162297 0.05534256 50.94646747 0.05032361 43.84130621 C0.03987338 29.22752843 0.02228603 14.61376446 0 0 Z " fill="#3B3B3B" transform="translate(160,38)"/>
<path d="M0 0 C1.26881012 -0.00540298 2.53762024 -0.01080597 3.84487915 -0.01637268 C7.31819021 -0.03031553 10.79100523 -0.01916563 14.26428866 -0.00266147 C17.90365897 0.01121003 21.54300109 0.00472645 25.18238831 0.00120544 C31.29468762 -0.00149538 37.40679042 0.01196655 43.51904297 0.03515625 C50.57812521 0.06175341 57.63687868 0.06351646 64.69599384 0.05176789 C71.49463304 0.04097426 78.29315372 0.04719034 85.09178352 0.06132317 C87.98121008 0.06707047 90.87054955 0.06701018 93.75997734 0.06225777 C97.79849905 0.05658269 101.83653328 0.07584149 105.875 0.09765625 C107.6682798 0.09090378 107.6682798 0.09090378 109.49778748 0.08401489 C120.33784833 0.18133123 120.33784833 0.18133123 124.50219727 3.50170898 C128.41798913 9.62286348 127.90740939 16.06036574 127.84277344 23.13818359 C127.84321152 24.39741638 127.8436496 25.65664917 127.84410095 26.95404053 C127.84495814 30.38959706 127.82737778 33.82483636 127.80637908 37.26031947 C127.78756573 40.8570879 127.78585818 44.4538644 127.78230286 48.05067444 C127.77299601 54.85391841 127.74840081 61.65701696 127.71825439 68.46019703 C127.68466786 76.20867988 127.66821371 83.95716985 127.65316808 91.70570743 C127.62184992 107.63779203 127.56911611 123.56973172 127.50219727 139.50170898 C126.84219727 139.50170898 126.18219727 139.50170898 125.50219727 139.50170898 C125.50496264 138.86063485 125.50772802 138.21956072 125.5105772 137.5590601 C125.57693684 121.93370521 125.62652627 106.30839959 125.65763378 90.68293858 C125.67307842 83.12646474 125.69412172 75.57008518 125.72851562 68.01367188 C125.75849187 61.42466651 125.77778973 54.83572945 125.78446275 48.24665779 C125.78836115 44.76034105 125.79747218 41.27421967 125.81938744 37.78796577 C125.84369924 33.88855555 125.84416199 29.98933347 125.84277344 26.08984375 C125.85355927 24.94400818 125.86434509 23.79817261 125.87545776 22.61761475 C125.89061767 13.16179933 125.89061767 13.16179933 122.50219727 4.50170898 C116.70762342 1.43497363 109.70756805 2.22707875 103.28051758 2.25878906 C102.06511795 2.25689072 100.84971832 2.25499237 99.5974884 2.2530365 C96.28159769 2.2499769 92.96595862 2.25581057 89.65009785 2.26598954 C86.174835 2.27480573 82.69957595 2.27301195 79.2243042 2.27262878 C73.39389792 2.27356343 67.56354389 2.28222297 61.7331543 2.29589844 C54.99215677 2.31165132 48.2512163 2.31689541 41.51020169 2.31616288 C34.32713175 2.31548776 27.14408379 2.32242373 19.96102047 2.33160949 C17.89231978 2.33374075 15.82362264 2.33445064 13.75492096 2.3348484 C9.90535969 2.33603845 6.05584597 2.34574584 2.20629883 2.35644531 C1.05923965 2.35599213 -0.08781952 2.35553894 -1.26963806 2.35507202 C-2.31541519 2.35933701 -3.36119232 2.36360199 -4.43865967 2.36799622 C-5.80356348 2.37050998 -5.80356348 2.37050998 -7.19604111 2.37307453 C-9.65951956 2.40961441 -9.65951956 2.40961441 -12.49780273 3.50170898 C-13.68886562 5.0627951 -13.68886562 5.0627951 -14.62280273 6.93920898 C-14.95538086 7.55666992 -15.28795898 8.17413086 -15.63061523 8.81030273 C-17.30065799 12.06763837 -17.63125757 14.01510364 -17.65602112 17.71548462 C-17.66580994 18.82048813 -17.67559875 19.92549164 -17.6856842 21.0639801 C-17.69143967 22.2817363 -17.69719513 23.49949249 -17.703125 24.75415039 C-17.7130246 26.03216019 -17.72292419 27.31016998 -17.73312378 28.62690735 C-17.76020148 32.13698743 -17.78119549 35.647081 -17.80112576 39.15720797 C-17.82296768 42.82344818 -17.85036513 46.48964668 -17.87718201 50.15585327 C-17.92713321 57.10083506 -17.97206301 64.04583996 -18.01520437 70.99086702 C-18.06455602 78.89647365 -18.11948182 86.80203846 -18.17488396 94.70760465 C-18.28874127 110.97226754 -18.39557212 127.23696877 -18.49780273 143.50170898 C-18.82780273 143.50170898 -19.15780273 143.50170898 -19.49780273 143.50170898 C-20.39174473 136.11156817 -20.65125587 128.82561914 -20.65893555 121.38598633 C-20.66390045 120.21719437 -20.66886536 119.0484024 -20.67398071 117.8441925 C-20.68849162 114.00867103 -20.6953833 110.17319081 -20.70092773 106.33764648 C-20.70522855 104.33616399 -20.70952993 102.33468149 -20.71390224 100.33319914 C-20.72566884 94.76604906 -20.7332358 89.19890885 -20.73669744 83.6317476 C-20.74118536 76.45684102 -20.75878575 69.28212425 -20.78769803 62.10727537 C-20.80935278 56.5384134 -20.81940352 50.96960476 -20.82073855 45.40070117 C-20.82178268 42.08391694 -20.82907291 38.76735226 -20.84555817 35.45060349 C-20.86263478 31.75313658 -20.8607349 28.05613305 -20.85424805 24.35864258 C-20.86346283 23.27167587 -20.87267761 22.18470917 -20.88217163 21.06480408 C-20.84180715 13.71069426 -20.22594533 8.0344699 -15.59141541 2.0330658 C-10.56199221 -0.45652883 -5.53326237 -0.04467093 0 0 Z " fill="#CACACA" transform="translate(44.497802734375,24.498291015625)"/>
<path d="M0 0 C1.00540833 -0.00412399 2.01081665 -0.00824799 3.04669189 -0.01249695 C4.69961998 0.00368179 4.69961998 0.00368179 6.38594055 0.02018738 C7.54705353 0.0197493 8.7081665 0.01931122 9.90446472 0.01885986 C13.75173109 0.02095397 17.59856453 0.04431505 21.445755 0.0677948 C24.10948424 0.07338854 26.77318932 0.07780721 29.43692017 0.08065796 C35.73739575 0.08998536 42.03771533 0.11460843 48.33812219 0.14470643 C55.5109474 0.1782289 62.68378003 0.19473101 69.85666406 0.20979273 C84.61170128 0.24115746 99.36661605 0.29393141 114.12153625 0.36076355 C116.46082197 7.94112069 116.46082197 7.94112069 115.12153625 12.36076355 C114.79153625 12.36076355 114.46153625 12.36076355 114.12153625 12.36076355 C113.62653625 7.90576355 113.62653625 7.90576355 113.12153625 3.36076355 C109.81198881 2.62053758 106.76013109 2.2372065 103.37115479 2.24482727 C102.44450516 2.24464096 101.51785553 2.24445465 100.56312561 2.2442627 C99.05664459 2.25189888 99.05664459 2.25189888 97.51972961 2.25968933 C96.45253189 2.26126541 95.38533417 2.26284149 94.28579712 2.26446533 C90.76093772 2.27194914 87.23620007 2.28795522 83.71138 2.30607605 C81.90537417 2.31463938 81.90537417 2.31463938 80.06288338 2.3233757 C73.69753239 2.3548831 67.33227072 2.39381257 60.96699524 2.43791199 C54.38384528 2.48178269 47.80093404 2.49749872 41.21765804 2.50714302 C36.16040598 2.5199848 31.10347169 2.55465648 26.04637337 2.59525681 C23.61868224 2.61077758 21.19092198 2.61783714 18.76318169 2.61635208 C15.37281094 2.61617334 11.98406994 2.64700164 8.59394836 2.68547058 C7.58760345 2.67841599 6.58125854 2.67136139 5.54441833 2.66409302 C0.15266109 2.76002683 0.15266109 2.76002683 -4.50460815 5.25360107 C-6.50869399 9.78611553 -6.4043605 13.84543036 -6.33256531 18.75065613 C-6.33314941 19.79501831 -6.33373352 20.83938049 -6.33433533 21.91539001 C-6.33155185 25.36236473 -6.30044608 28.80847141 -6.26908875 32.2552948 C-6.26162733 34.64711027 -6.25593393 37.03893185 -6.25193787 39.43075562 C-6.2366739 45.7224163 -6.19738486 52.01370695 -6.15312195 58.30522156 C-6.11218609 64.72667943 -6.09393041 71.14819715 -6.07377625 77.56974792 C-6.03089189 90.1669109 -5.96340097 102.76381753 -5.87846375 115.36076355 C-6.86846375 115.85576355 -6.86846375 115.85576355 -7.87846375 116.36076355 C-7.94851123 101.67924226 -8.00143096 86.99774305 -8.03390026 72.31608868 C-8.04937632 65.49929917 -8.0704798 58.68261342 -8.1047821 51.8658905 C-8.13785049 45.29125 -8.15530156 38.71668921 -8.16309547 32.14196205 C-8.16865199 29.62965507 -8.179502 27.11735421 -8.19565392 24.605093 C-8.21733165 21.09472616 -8.22043467 17.58480926 -8.21903992 14.0743866 C-8.22982574 13.02853897 -8.24061157 11.98269135 -8.25172424 10.90515137 C-8.24760025 9.95022797 -8.24347626 8.99530457 -8.23922729 8.01144409 C-8.24199267 7.18090861 -8.24475805 6.35037313 -8.24760723 5.49466991 C-7.87846375 3.36076355 -7.87846375 3.36076355 -6.66082001 1.59264374 C-4.31280252 -0.03019469 -2.84511799 -0.00899405 0 0 Z " fill="#191919" transform="translate(44.87846374511719,36.63923645019531)"/>
<path d="M0 0 C2 4 2 4 1.625 6.25 C1.41875 6.8275 1.2125 7.405 1 8 C1.66 8 2.32 8 3 8 C3.07007068 23.44655389 3.12297864 38.8930959 3.15543652 54.33977127 C3.17090764 61.51188723 3.19200173 68.68390445 3.22631836 75.85595703 C3.25621334 82.10688014 3.27557322 88.35773175 3.28226548 94.60872436 C3.28617763 97.9188399 3.29694738 101.22870309 3.31719017 104.53876495 C3.33889068 108.23332471 3.34196995 111.92745733 3.34057617 115.62207031 C3.351362 116.72042709 3.36214783 117.81878387 3.3732605 118.95042419 C3.36913651 119.95720718 3.36501251 120.96399017 3.36076355 122.00128174 C3.36352893 122.87514149 3.36629431 123.74900124 3.36914349 124.64934158 C3 127 3 127 0 131 C0 87.77 0 44.54 0 0 Z " fill="#E1E1E1" transform="translate(173,33)"/>
<path d="M0 0 C1.485 0.99 1.485 0.99 3 2 C9.95604732 4.36845355 17.13953462 4.30492405 24.40454102 4.31884766 C26.2206765 4.33391609 26.2206765 4.33391609 28.07350159 4.34928894 C31.36626027 4.37473725 34.65892603 4.39167929 37.9517529 4.40471697 C41.40310041 4.42043445 44.85436261 4.44719679 48.3056488 4.4727478 C54.82893794 4.51938401 61.3522434 4.55620105 67.87561315 4.58942068 C75.30741419 4.62774973 82.73912922 4.67713134 90.17085755 4.72740483 C105.44717605 4.830499 120.72354293 4.91983199 136 5 C132.74718059 7.16854627 131.86252382 7.24956926 128.10617065 7.24723816 C126.59232536 7.25352989 126.59232536 7.25352989 125.04789734 7.25994873 C123.94138321 7.25432922 122.83486908 7.24870972 121.69482422 7.24291992 C120.52866074 7.24481827 119.36249725 7.24671661 118.16099548 7.24867249 C114.29215851 7.2523875 110.42350791 7.24166176 106.5546875 7.23046875 C103.86768556 7.22827021 101.18068553 7.22877303 98.49368286 7.2290802 C92.85286129 7.22814315 87.21209345 7.21945836 81.57128906 7.20581055 C75.06679738 7.1901303 68.56236472 7.18481089 62.05785549 7.1855461 C55.11877806 7.18622432 48.17972316 7.17926251 41.24065256 7.1700995 C39.24996301 7.16797704 37.259272 7.16741575 35.26858139 7.16686058 C31.53953906 7.16468324 27.81056955 7.1559075 24.08154297 7.14526367 C22.98717422 7.14571686 21.89280548 7.14617004 20.76527405 7.14663696 C4.38973223 7.07857529 4.38973223 7.07857529 1.25422478 4.64509869 C0 3 0 3 0 0 Z " fill="#BBBBBB" transform="translate(27,165)"/>
<path d="M0 0 C0.33 0 0.66 0 1 0 C1.0700405 15.98537418 1.12296376 31.97069868 1.15543652 47.95618916 C1.17091406 55.37831561 1.19202041 62.8003468 1.22631836 70.22241211 C1.2561937 76.69050238 1.27556855 83.15852368 1.28226548 89.62668103 C1.28618095 93.05244464 1.29540093 96.47801088 1.31719017 99.90371132 C1.34130103 103.72531495 1.34197119 107.54672442 1.34057617 111.3684082 C1.351362 112.50776321 1.36214783 113.64711823 1.3732605 114.82099915 C1.36913651 115.86006409 1.36501251 116.89912903 1.36076355 117.96968079 C1.36352893 118.8739597 1.36629431 119.77823862 1.36914349 120.70991993 C1 123 1 123 -0.20815277 124.79184723 C-2.59984294 126.40444403 -4.15357574 126.36956093 -7.03031921 126.36076355 C-8.06938416 126.36488754 -9.1084491 126.36901154 -10.17900085 126.3732605 C-11.88803337 126.35708176 -11.88803337 126.35708176 -13.6315918 126.34057617 C-14.83171906 126.34101425 -16.03184631 126.34145233 -17.26834106 126.34190369 C-20.55960168 126.34017051 -23.85029925 126.32511531 -27.14146018 126.30418181 C-30.58076558 126.28544047 -34.0200783 126.28366659 -37.45942688 126.28010559 C-43.97239581 126.27077761 -50.48521386 126.24615376 -56.99811631 126.21605712 C-64.41277562 126.18253644 -71.82744209 126.16603299 -79.24215829 126.15097082 C-94.49485961 126.11960477 -109.74741036 126.06682977 -125 126 C-125 125.67 -125 125.34 -125 125 C-66.095 124.505 -66.095 124.505 -6 124 C-6 123.34 -6 122.68 -6 122 C-4.125 119.875 -4.125 119.875 -2 118 C-1.34 118 -0.68 118 0 118 C0 79.06 0 40.12 0 0 Z " fill="#606060" transform="translate(165,40)"/>
<path d="M0 0 C1.21031891 -0.00043808 2.42063782 -0.00087616 3.66763306 -0.00132751 C6.97318004 0.00040004 10.27815963 0.01540822 13.58360624 0.03639436 C17.04291316 0.05519346 20.50222825 0.05691414 23.96157837 0.06047058 C30.50632176 0.06978159 37.05091417 0.09438246 43.59559119 0.12451905 C51.04901336 0.15809257 58.50244288 0.17455647 65.95592189 0.18960536 C81.28271364 0.22093296 96.6093549 0.27367493 111.93603516 0.34057617 C111.93603516 0.67057617 111.93603516 1.00057617 111.93603516 1.34057617 C111.30950043 1.33927735 110.6829657 1.33797853 110.03744507 1.33664036 C94.77105184 1.3074002 79.50521059 1.31685818 64.23890686 1.3690424 C56.85608311 1.39335197 49.47366917 1.40470891 42.09082031 1.38525391 C35.65359617 1.36832399 29.21694541 1.37602262 22.7797966 1.41292375 C19.37319782 1.43160193 15.96756803 1.43819887 12.56097412 1.41526985 C8.75149614 1.39582981 4.94457631 1.41991904 1.13525391 1.45410156 C0.01387527 1.43828537 -1.10750336 1.42246918 -2.26286316 1.40617371 C-8.64882814 1.51629722 -13.07634152 2.37676058 -17.64518738 7.06554508 C-20.46613294 11.58897389 -20.15276707 16.32883756 -20.06396484 21.51806641 C-20.07488663 22.72853134 -20.08580841 23.93899628 -20.09706116 25.18614197 C-20.11912313 28.48861153 -20.10604586 31.78736712 -20.07704544 35.0895412 C-20.05509175 38.54629945 -20.07845997 42.00275184 -20.09692383 45.45948792 C-20.12500836 51.99729447 -20.11261135 58.53436595 -20.08549976 65.07215124 C-20.05660429 72.51846652 -20.07309608 79.96446785 -20.09331131 87.41078651 C-20.13386301 102.72092418 -20.11770697 118.03046146 -20.06396484 133.34057617 C-20.39396484 133.34057617 -20.72396484 133.34057617 -21.06396484 133.34057617 C-21.1340566 117.12897553 -21.18695379 100.91742407 -21.21940136 84.7057085 C-21.23486801 77.17826585 -21.2559536 69.65091737 -21.2902832 62.12353516 C-21.32019183 55.56240214 -21.33954132 49.00133733 -21.34623033 42.44013804 C-21.35014014 38.96624508 -21.3593243 35.49254722 -21.38115501 32.01871681 C-21.40533201 28.14004493 -21.40593389 24.26156367 -21.40454102 20.3828125 C-21.41532684 19.23194656 -21.42611267 18.08108063 -21.43722534 16.89533997 C-21.43310135 15.83669739 -21.42897736 14.77805481 -21.42472839 13.68733215 C-21.42749377 12.77014813 -21.43025915 11.85296412 -21.43310833 10.90798664 C-20.98203407 7.77074375 -19.89855996 5.90497209 -18.06396484 3.34057617 C-12.58408483 -0.69296765 -6.51044641 -0.06170957 0 0 Z " fill="#9D9D9D" transform="translate(49.06396484375,27.659423828125)"/>
<path d="M0 0 C15.93354018 -0.09349416 31.86700615 -0.16400399 47.80075264 -0.20724869 C55.19929303 -0.22786282 62.59766285 -0.2559612 69.99609375 -0.30175781 C76.44553552 -0.34166106 82.89485375 -0.36744117 89.34441555 -0.37635398 C92.75860635 -0.38156292 96.17244375 -0.39378114 99.58652115 -0.42292023 C103.40050536 -0.45192063 107.21375545 -0.45595721 111.02783203 -0.45410156 C112.15640121 -0.46848267 113.2849704 -0.48286377 114.44773865 -0.49768066 C120.55168572 -0.46550671 124.49656203 -0.3279403 129 4 C130.70704276 7.49453472 131.24861223 10.28765849 131.24050903 14.15693665 C131.24463303 15.68179436 131.24463303 15.68179436 131.24884033 17.23745728 C131.2380545 18.89362564 131.2380545 18.89362564 131.22705078 20.58325195 C131.22734283 21.75441055 131.22763489 22.92556915 131.22793579 24.13221741 C131.22654312 28.00098087 131.21098457 31.86955145 131.1953125 35.73828125 C131.19158215 38.42156806 131.18863689 41.1048442 131.18673706 43.78813171 C131.18052658 50.12745654 131.16412165 56.46671221 131.14403808 62.80600661 C131.1216656 70.02483882 131.11068226 77.24367438 131.10064721 84.46253264 C131.07975502 99.30839247 131.04458747 114.15419167 131 129 C130.67 129 130.34 129 130 129 C130 89.73 130 50.46 130 10 C129.34 10 128.68 10 128 10 C127.4121875 8.576875 127.4121875 8.576875 126.8125 7.125 C124.71300885 3.50518767 123.88067073 3.17764358 120 2 C117.48566809 1.69442031 117.48566809 1.69442031 114.84306335 1.7215271 C113.82649155 1.71036362 112.80991974 1.69920013 111.76254272 1.68769836 C110.65843048 1.68553818 109.55431824 1.68337799 108.41674805 1.68115234 C107.24558945 1.67110672 106.07443085 1.6610611 104.86778259 1.65071106 C100.99909961 1.61983566 97.13048597 1.60283151 93.26171875 1.5859375 C90.57842497 1.56722936 87.89514782 1.54775262 85.21186829 1.5272522 C78.87261028 1.48050607 72.53333542 1.44374187 66.19399339 1.41057932 C58.97509624 1.37232843 51.75628882 1.32292607 44.53746736 1.27259517 C29.69171234 1.16933734 14.84589898 1.08005699 0 1 C0 0.67 0 0.34 0 0 Z " fill="#8F8F8F" transform="translate(38,29)"/>
<path d="M0 0 C0.66 0.33 1.32 0.66 2 1 C1.2884375 1.6496875 1.2884375 1.6496875 0.5625 2.3125 C-2.12332914 5.21319547 -2.12633957 8.01561369 -2.13371277 11.78234863 C-2.13797775 12.76659317 -2.14224274 13.75083771 -2.14663696 14.76490784 C-2.14618378 15.84344528 -2.14573059 16.92198273 -2.14526367 18.03320312 C-2.14862228 19.16999008 -2.1519809 20.30677704 -2.15544128 21.47801208 C-2.16496123 25.24576909 -2.1668948 29.01348171 -2.16796875 32.78125 C-2.17118016 35.39294453 -2.17454414 38.00463887 -2.17805481 40.61633301 C-2.18445037 46.09399709 -2.18593717 51.57164909 -2.18530273 57.04931641 C-2.18470152 63.38353801 -2.19526253 69.71767457 -2.2110464 76.05187464 C-2.22568583 82.14355418 -2.22929116 88.23519282 -2.22869301 94.32688904 C-2.22987623 96.92012378 -2.23431699 99.51335909 -2.24202538 102.10658264 C-2.25178003 105.72672673 -2.24896529 109.34664952 -2.24291992 112.96679688 C-2.24853943 114.04533432 -2.25415894 115.12387177 -2.25994873 116.23509216 C-2.25575424 117.2193367 -2.25155975 118.20358124 -2.24723816 119.21765137 C-2.24778293 120.07378777 -2.24832769 120.92992416 -2.24888897 121.81200409 C-2.13566634 124.29169751 -2.13566634 124.29169751 0 127 C5.48139592 129.63547593 11.19724302 129.30654369 17.14599609 129.31884766 C18.2587793 129.32889328 19.3715625 129.3389389 20.51806641 129.34928894 C24.18651831 129.38011454 27.85489725 129.39715463 31.5234375 129.4140625 C34.07077665 129.43277461 36.6181096 129.45234806 39.16543579 129.4727478 C45.17884285 129.51882806 51.19224307 129.55623791 57.20573008 129.58942068 C64.05464809 129.62769923 70.90347197 129.67709427 77.75231051 129.72740483 C91.83480378 129.83060465 105.91735773 129.91990373 120 130 C120 130.33 120 130.66 120 131 C104.570782 131.11683006 89.1415971 131.20498648 73.7120409 131.25906086 C66.54770428 131.28483663 59.38364258 131.31997456 52.21948242 131.37719727 C45.97477445 131.42705218 39.73026559 131.4592956 33.48536414 131.47044247 C30.17894723 131.476958 26.87323236 131.49488214 23.5669651 131.52865028 C19.87478267 131.56486542 16.1837861 131.56994819 12.49145508 131.56762695 C10.84931282 131.59459152 10.84931282 131.59459152 9.17399597 131.62210083 C4.65546164 131.5912948 1.78799858 131.45015471 -2.17976379 129.18351746 C-4.93996585 124.3560388 -4.68143988 119.96822735 -4.61523438 114.49609375 C-4.62078339 113.33296661 -4.6263324 112.16983948 -4.63204956 110.97146606 C-4.64386107 107.12639178 -4.61955303 103.2824919 -4.59375 99.4375 C-4.59203926 96.76617752 -4.59200105 94.09490143 -4.59387207 91.42358398 C-4.59381853 85.82488755 -4.57408412 80.22652901 -4.54199219 74.62792969 C-4.50510071 68.16070396 -4.49631696 61.69392073 -4.5032897 55.22660351 C-4.50960113 48.99818653 -4.49882865 42.76992085 -4.47932434 36.54153442 C-4.47228886 33.89414205 -4.46917047 31.2467363 -4.47001648 28.59933472 C-4.46822049 24.90061228 -4.44685407 21.20251988 -4.41992188 17.50390625 C-4.42285248 16.40764923 -4.42578308 15.31139221 -4.42880249 14.18191528 C-4.36440184 8.45471504 -4.26463568 4.26463568 0 0 Z " fill="#545454" transform="translate(36,34)"/>
<path d="M0 0 C3 1 3 1 5 4 C5 4.99 5 5.98 5 7 C5.66 7 6.32 7 7 7 C7.04667715 22.4811157 7.08196778 37.96222616 7.10362434 53.44339561 C7.11394619 60.63123295 7.1280238 67.81902662 7.15087891 75.00683594 C7.17078507 81.27019136 7.18370983 87.53351517 7.18817699 93.79690135 C7.1907891 97.11472109 7.19798831 100.43242902 7.21146011 103.75022507 C7.22589069 107.44991259 7.22798148 111.14941014 7.22705078 114.84912109 C7.23783661 116.50744209 7.23783661 116.50744209 7.24884033 118.19926453 C7.246091 119.20329819 7.24334167 120.20733185 7.24050903 121.24179077 C7.24235262 122.11749411 7.24419621 122.99319744 7.24609566 123.89543724 C7 126 7 126 5 128 C4.99853344 127.38708288 4.99706688 126.77416576 4.99555588 126.1426754 C4.9584812 111.21921715 4.89945779 96.29596649 4.81609726 81.37270164 C4.77631195 74.15585336 4.74391696 66.93911404 4.72900391 59.72216797 C4.71598465 53.43081556 4.68901335 47.13970294 4.64538693 40.84848559 C4.62277768 37.51819627 4.60917005 34.18826709 4.60811615 30.85789108 C4.60575435 27.13715293 4.57873543 23.41735394 4.54589844 19.69677734 C4.5509288 18.59626038 4.55595917 17.49574341 4.56114197 16.36187744 C4.47677539 10.18910177 3.93666574 6.79387351 0 2 C0 1.34 0 0.68 0 0 Z " fill="#767676" transform="translate(161,32)"/>
<path d="M0 0 C0.33 0 0.66 0 1 0 C1.04630062 13.62120244 1.08185767 27.24238622 1.10362434 40.86365128 C1.11407021 47.1882632 1.12824414 53.51282136 1.15087891 59.83740234 C1.17257852 65.93873372 1.18456258 72.04001333 1.18975449 78.14138031 C1.19345541 80.47143113 1.20068221 82.80147905 1.21146011 85.13150787 C1.2259366 88.39014351 1.22797954 91.64856404 1.22705078 94.90722656 C1.23424133 95.874673 1.24143188 96.84211945 1.24884033 97.83888245 C1.246091 98.72786728 1.24334167 99.61685211 1.24050903 100.53277588 C1.24235262 101.30339481 1.24419621 102.07401375 1.24609566 102.86798477 C0.96332853 105.31769815 0.29948055 106.91222691 -1 109 C-3.36648883 110.18324441 -4.7773132 110.12326046 -7.41653442 110.12025452 C-8.80899384 110.12231651 -8.80899384 110.12231651 -10.22958374 110.12442017 C-11.25097443 110.12082489 -12.27236511 110.11722961 -13.32470703 110.11352539 C-14.93448425 110.11374443 -14.93448425 110.11374443 -16.57678223 110.1139679 C-20.13714595 110.11326917 -23.69745787 110.10547861 -27.2578125 110.09765625 C-29.72118094 110.09579193 -32.18454976 110.09436809 -34.6479187 110.09336853 C-41.14167295 110.08954446 -47.63540495 110.07971511 -54.12915039 110.06866455 C-60.75146178 110.05844806 -67.37377676 110.0538704 -73.99609375 110.04882812 C-86.99740534 110.03809276 -99.99870149 110.021209 -113 110 C-112.505 109.01 -112.505 109.01 -112 108 C-111.45131602 108.00092179 -110.90263205 108.00184359 -110.33732128 108.00279331 C-96.9922958 108.02486882 -83.64727352 108.04135766 -70.3022337 108.05181217 C-63.84869902 108.0570374 -57.3951775 108.06412856 -50.94165039 108.07543945 C-44.71713443 108.08628106 -38.49263114 108.09227956 -32.26810646 108.09487724 C-29.88978692 108.09672918 -27.51146809 108.1003454 -25.13315392 108.10573006 C-21.80970113 108.11295733 -18.48630114 108.11399022 -15.1628418 108.11352539 C-14.1730986 108.11712067 -13.18335541 108.12071594 -12.16362 108.12442017 C-10.80696228 108.12235817 -10.80696228 108.12235817 -9.42289734 108.12025452 C-8.63660792 108.12117631 -7.85031851 108.1220981 -7.04020214 108.12304783 C-4.79708013 108.07599414 -4.79708013 108.07599414 -2 107 C-1.22787736 100.30362442 -0.83920136 93.69894271 -0.79467773 86.96044922 C-0.78477814 86.01289261 -0.77487854 85.065336 -0.76467896 84.08906555 C-0.73339301 80.99429724 -0.70843837 77.89951364 -0.68359375 74.8046875 C-0.66299571 72.64421212 -0.64199854 70.48374051 -0.62062073 68.32327271 C-0.56569416 62.66482619 -0.51615639 57.0063451 -0.46777344 51.34783936 C-0.41734227 45.56259114 -0.36176956 39.77739252 -0.30664062 33.9921875 C-0.19941938 22.66150079 -0.09789592 11.33077085 0 0 Z " fill="#1E1E1E" transform="translate(160,51)"/>
<path d="M0 0 C1.16298363 -0.00532368 2.32596725 -0.01064735 3.52419281 -0.01613235 C9.65495642 -0.04265019 15.78570096 -0.06211015 21.91650391 -0.07666016 C26.98341523 -0.09009872 32.04993328 -0.11816182 37.11669922 -0.15869141 C43.26130603 -0.20781281 49.40555161 -0.23275132 55.55034637 -0.23988724 C57.88683798 -0.24661484 60.22332099 -0.26187576 62.55970001 -0.28577805 C65.81009509 -0.31719407 69.05906502 -0.31750442 72.30957031 -0.31005859 C73.27574783 -0.32646393 74.24192535 -0.34286926 75.23738098 -0.35977173 C77.67451611 -0.33680599 79.86190471 -0.28356653 82.234375 0.2734375 C84.38987976 2.72494489 85.234375 4.01414585 85.234375 7.2734375 C84.574375 7.2734375 83.914375 7.2734375 83.234375 7.2734375 C82.244375 4.7984375 82.244375 4.7984375 81.234375 2.2734375 C41.304375 2.2734375 1.374375 2.2734375 -39.765625 2.2734375 C-39.765625 1.9434375 -39.765625 1.6134375 -39.765625 1.2734375 C-26.51915404 0.12420259 -13.28863441 0.05722915 0 0 Z " fill="#4B4B4B" transform="translate(78.765625,31.7265625)"/>
<path d="M0 0 C0.66 1.32 1.32 2.64 2 4 C2.33 4.33 2.66 4.66 3 5 C3.09776581 6.44799409 3.12631726 7.9007296 3.12698364 9.35202026 C3.12980347 10.2914447 3.13262329 11.23086914 3.13552856 12.19876099 C3.13350433 13.23773529 3.1314801 14.27670959 3.12939453 15.34716797 C3.13114685 16.43489502 3.13289917 17.52262207 3.13470459 18.64331055 C3.1391264 22.25961883 3.13618355 25.87587867 3.1328125 29.4921875 C3.13348554 31.99463917 3.13445557 34.49709079 3.13571167 36.99954224 C3.13718917 42.25376891 3.13512747 47.50798287 3.13037109 52.76220703 C3.12493411 58.83847394 3.126687 64.91470727 3.1321975 70.99097335 C3.13728174 76.83062682 3.13674403 82.67026752 3.13381577 88.50992203 C3.13314719 90.99709198 3.1339725 93.48426278 3.13629532 95.97143173 C3.13882707 99.44565874 3.1349735 102.91982081 3.12939453 106.39404297 C3.13141876 107.42896881 3.13344299 108.46389465 3.13552856 109.53018188 C3.13270874 110.47524597 3.12988892 111.42031006 3.12698364 112.39401245 C3.12660662 113.21587477 3.12622959 114.03773708 3.12584114 114.88450432 C3 117 3 117 2 120 C1.34 120 0.68 120 0 120 C0 80.4 0 40.8 0 0 Z " fill="#2D2D2D" transform="translate(160,38)"/>
<path d="M0 0 C16.26341291 -0.07001307 32.5267771 -0.12295027 48.79030418 -0.15543652 C56.34137376 -0.1709199 63.89234982 -0.19203734 71.44335938 -0.22631836 C78.0231414 -0.25617589 84.60285573 -0.2755643 91.18270361 -0.28226548 C94.66823749 -0.28618399 98.15357762 -0.29542309 101.63904953 -0.31719017 C105.52551718 -0.34126569 109.41179354 -0.34197235 113.29833984 -0.34057617 C114.45999161 -0.351362 115.62164337 -0.36214783 116.8184967 -0.3732605 C118.40027458 -0.36707451 118.40027458 -0.36707451 120.01400757 -0.36076355 C121.39393167 -0.36491162 121.39393167 -0.36491162 122.80173302 -0.36914349 C123.52716112 -0.24732614 124.25258923 -0.12550879 125 0 C125.99 1.485 125.99 1.485 127 3 C129.56282742 3.72965366 129.56282742 3.72965366 132 4 C131.67 5.32 131.34 6.64 131 8 C130.01 7.01 130.01 7.01 129 6 C121.36164747 2.31171473 114.3030444 1.41445849 105.91918945 1.45410156 C104.76666183 1.44376389 103.61413422 1.43342621 102.42668152 1.42277527 C98.65540263 1.3935151 94.88466436 1.39185159 91.11328125 1.390625 C88.48340339 1.37563211 85.85353491 1.35890264 83.22367859 1.34051514 C77.03333598 1.30013839 70.84309821 1.2796579 64.65264434 1.26654124 C57.59801653 1.25060861 50.54356559 1.21216713 43.48904097 1.17194796 C28.99276415 1.08980036 14.49646513 1.0355517 0 1 C0 0.67 0 0.34 0 0 Z " fill="#E5E5E5" transform="translate(39,22)"/>
<path d="M0 0 C0.33 0 0.66 0 1 0 C1 39.93 1 79.86 1 121 C1.66 121 2.32 121 3 121 C4.49524178 123.2727675 5.78399715 125.5679943 7 128 C2.25 127.25 2.25 127.25 0 125 C-0.24609566 122.80173302 -0.24609566 122.80173302 -0.24050903 120.01400757 C-0.24325836 118.95948898 -0.24600769 117.9049704 -0.24884033 116.8184967 C-0.24164978 115.65684494 -0.23445923 114.49519318 -0.22705078 113.29833984 C-0.22734283 112.07885147 -0.22763489 110.8593631 -0.22793579 109.60292053 C-0.22677908 106.25387612 -0.21673108 102.90507661 -0.20278788 99.55607557 C-0.19030698 96.05803107 -0.18911211 92.5599835 -0.18673706 89.06192017 C-0.1805145 82.43562769 -0.16409324 75.80940101 -0.14403808 69.18313754 C-0.12170316 61.64031769 -0.11069172 54.09749474 -0.10064721 46.55465007 C-0.07972765 31.03639524 -0.04453666 15.5182061 0 0 Z " fill="#ADADAD" transform="translate(27,40)"/>
<path d="M0 0 C0.33 0 0.66 0 1 0 C1.00423194 0.57260905 1.00846388 1.14521811 1.01282406 1.73517895 C1.11616682 15.67346481 1.22487097 29.61170001 1.33933926 43.5498991 C1.39459735 50.29032877 1.44806704 57.03076374 1.49731445 63.77124023 C1.54483453 70.27460831 1.59735449 76.77792482 1.65294075 83.28122902 C1.67334091 85.76394149 1.69205784 88.24666838 1.70907402 90.72940636 C1.73316965 94.20336496 1.76321744 97.67722442 1.79467773 101.15112305 C1.8004332 102.18042938 1.80618866 103.20973572 1.81211853 104.27023315 C1.82190735 105.21949173 1.83169617 106.16875031 1.84178162 107.14677429 C1.84823417 107.96809184 1.85468672 108.78940939 1.8613348 109.63561535 C2.00967335 112.16494067 2.44883583 114.5296886 3 117 C2.34 117 1.68 117 1 117 C-0.20593342 114.58813315 -0.12318918 113.08766923 -0.12025452 110.39364624 C-0.12162918 109.4232692 -0.12300385 108.45289215 -0.12442017 107.45310974 C-0.12082489 106.38496536 -0.11722961 105.31682098 -0.11352539 104.21630859 C-0.11367142 103.09435593 -0.11381744 101.97240326 -0.1139679 100.81645203 C-0.11326909 97.09376111 -0.10547815 93.37111972 -0.09765625 89.6484375 C-0.09579196 87.07296781 -0.09436811 84.49749776 -0.09336853 81.92202759 C-0.0899355 75.82699678 -0.08204739 69.73198653 -0.07201904 63.63696349 C-0.06085056 56.69872028 -0.0553456 49.76047624 -0.05032361 42.82222629 C-0.03986458 28.54814124 -0.02226971 14.27407126 0 0 Z " fill="#303030" transform="translate(35,43)"/>
<path d="M0 0 C13.8991509 -0.11675336 27.79822587 -0.20461632 41.6977663 -0.25906086 C48.15146672 -0.28518766 54.60483841 -0.32064294 61.05834961 -0.37719727 C67.28289725 -0.43140559 73.50712813 -0.46139728 79.73189354 -0.47438622 C82.11026181 -0.48364611 84.48861217 -0.50172789 86.86684608 -0.52865028 C90.19066868 -0.56479069 93.5131717 -0.56995146 96.8371582 -0.56762695 C97.8269014 -0.58560333 98.81664459 -0.60357971 99.83638 -0.62210083 C102.32677463 -0.60317496 104.5722522 -0.5542007 107 0 C109.17504156 2.45548049 110 3.72827344 110 7 C109.34 7 108.68 7 108 7 C107.66957199 6.18860062 107.33914398 5.37720123 106.998703 4.54121399 C105.31685752 1.86577271 105.31685752 1.86577271 103.05361366 1.52281761 C100.3661337 1.34139627 97.71442111 1.31664865 95.02075195 1.34057617 C93.99618896 1.33009247 92.97162598 1.31960876 91.91601562 1.30880737 C88.52313298 1.27996288 85.131265 1.2863602 81.73828125 1.29296875 C79.38842992 1.27985948 77.03858987 1.26455765 74.68876648 1.24714661 C68.49911592 1.20719401 62.30975943 1.19709951 56.11999512 1.19311523 C49.80581686 1.18380318 43.4918128 1.14640175 37.17773438 1.11132812 C24.78516446 1.04664766 12.39272392 1.01349331 0 1 C0 0.67 0 0.34 0 0 Z " fill="#595959" transform="translate(54,32)"/>
<path d="M0 0 C1.125 1.75 1.125 1.75 2 4 C0.93489465 8.2604214 -2.42745516 9.82540749 -6 12 C-6.75 10.3125 -6.75 10.3125 -7 8 C-5.25 5.25 -5.25 5.25 -3 3 C-2.01 3 -1.02 3 0 3 C0 2.01 0 1.02 0 0 Z " fill="#D5D5D5" transform="translate(172,161)"/>
<path d="M0 0 C0.1875 2.375 0.1875 2.375 0 5 C-3.22791555 7.1519437 -4.28400809 7.20086443 -8 7 C-7.01 6.67 -6.02 6.34 -5 6 C-5 5.34 -5 4.68 -5 4 C-1.35294118 0 -1.35294118 0 0 0 Z " fill="#575757" transform="translate(164,158)"/>
<path d="M0 0 C4.08718695 -0.24042276 7.17679443 0.57741188 11 2 C10.67 3.32 10.34 4.64 10 6 C9.34 5.34 8.68 4.68 8 4 C6.03511169 3.11221308 6.03511169 3.11221308 3.875 2.375 C3.15054688 2.11460938 2.42609375 1.85421875 1.6796875 1.5859375 C1.12539062 1.39257812 0.57109375 1.19921875 0 1 C0 0.67 0 0.34 0 0 Z " fill="#DDDDDD" transform="translate(160,24)"/>
<path d="M0 0 C0 0.99 0 1.98 0 3 C-2 5 -2 5 -5.625 5.125 C-6.73875 5.08375 -7.8525 5.0425 -9 5 C-6.3534665 2.3534665 -3.43778736 1.40058003 0 0 Z " fill="#AFAFAF" transform="translate(167,165)"/>
<path d="M0 0 C2.31 1.65 4.62 3.3 7 5 C5.68 5.33 4.36 5.66 3 6 C1.25 4.75 1.25 4.75 0 3 C0 2.01 0 1.02 0 0 Z " fill="#CDCDCD" transform="translate(27,165)"/>
</svg>
